<?xml version="1.0" encoding="UTF-8"?>
<!DOCTYPE svg PUBLIC "-//W3C//DTD SVG 1.1//EN" "http://www.w3.org/Graphics/SVG/1.1/DTD/svg11.dtd">
<svg xmlns="http://www.w3.org/2000/svg" version="1.1" width="512px" height="512px" style="shape-rendering:geometricPrecision; text-rendering:geometricPrecision; image-rendering:optimizeQuality; fill-rule:evenodd; clip-rule:evenodd" xmlns:xlink="http://www.w3.org/1999/xlink">
<g><path style="opacity:0.192" fill="#696969" d="M 199.5,-0.5 C 205.167,-0.5 210.833,-0.5 216.5,-0.5C 216.5,0.5 216.5,1.5 216.5,2.5C 210.833,2.5 205.167,2.5 199.5,2.5C 199.5,1.5 199.5,0.5 199.5,-0.5 Z"/></g>
<g><path style="opacity:0.979" fill="#fcfdfd" d="M 216.5,-0.5 C 242.5,-0.5 268.5,-0.5 294.5,-0.5C 294.5,0.5 294.5,1.5 294.5,2.5C 300.167,2.5 305.833,2.5 311.5,2.5C 314.5,2.5 317.5,2.5 320.5,2.5C 320.5,4.16667 320.5,5.83333 320.5,7.5C 324.5,7.5 328.5,7.5 332.5,7.5C 334.167,7.5 335.833,7.5 337.5,7.5C 337.5,9.5 337.5,11.5 337.5,13.5C 341.234,13.6773 344.901,13.3439 348.5,12.5C 350.167,12.5 351.833,12.5 353.5,12.5C 353.5,14.5 353.5,16.5 353.5,18.5C 356.5,18.5 359.5,18.5 362.5,18.5C 362.833,18.5 363.167,18.5 363.5,18.5C 363.5,20.5 363.5,22.5 363.5,24.5C 367.167,24.5 370.833,24.5 374.5,24.5C 374.5,26.1667 374.5,27.8333 374.5,29.5C 377.833,29.5 381.167,29.5 384.5,29.5C 384.5,31.8333 384.5,34.1667 384.5,36.5C 386.553,36.5979 388.22,35.9313 389.5,34.5C 390.167,34.5 390.833,34.5 391.5,34.5C 392.5,34.5 393.5,34.5 394.5,34.5C 393.309,39.1177 394.975,41.6177 399.5,42C 400.337,43.0113 400.67,44.1779 400.5,45.5C 403.059,45.8016 405.393,45.4682 407.5,44.5C 409.415,44.2155 411.081,44.5489 412.5,45.5C 411.351,45.7911 410.684,46.6244 410.5,48C 411.557,51.6734 413.057,55.1734 415,58.5C 418.073,59.2386 420.24,61.0719 421.5,64C 422.448,64.4828 423.448,64.6495 424.5,64.5C 424.972,67.8153 426.805,70.1486 430,71.5C 430.307,74.8762 432.14,76.2096 435.5,75.5C 434.79,78.8595 436.124,80.6929 439.5,81C 444.693,85.6929 449.36,90.8595 453.5,96.5C 455.664,96.9976 457.331,98.1642 458.5,100C 459.667,100.167 460.833,100.333 462,100.5C 463.681,100.392 464.848,99.7251 465.5,98.5C 466.451,99.9187 466.784,101.585 466.5,103.5C 465.203,105.693 465.203,108.027 466.5,110.5C 468.688,111.444 470.021,113.111 470.5,115.5C 472.396,116.466 474.396,116.799 476.5,116.5C 476.5,117.5 476.5,118.5 476.5,119.5C 476.5,119.833 476.5,120.167 476.5,120.5C 475.532,122.607 475.198,124.941 475.5,127.5C 477.5,127.5 479.5,127.5 481.5,127.5C 481.5,130.5 481.5,133.5 481.5,136.5C 483.167,136.5 484.833,136.5 486.5,136.5C 486.5,140.167 486.5,143.833 486.5,147.5C 488.5,147.5 490.5,147.5 492.5,147.5C 492.5,148.833 492.5,150.167 492.5,151.5C 492.5,153.5 492.5,155.5 492.5,157.5C 494.5,157.5 496.5,157.5 498.5,157.5C 498.5,159.167 498.5,160.833 498.5,162.5C 497.518,165.962 497.185,169.629 497.5,173.5C 499.5,173.5 501.5,173.5 503.5,173.5C 503.5,175.167 503.5,176.833 503.5,178.5C 503.5,178.833 503.5,179.167 503.5,179.5C 502.819,181.158 501.985,182.825 501,184.5C 499.65,190.808 502.15,193.475 508.5,192.5C 508.5,194.833 508.5,197.167 508.5,199.5C 508.5,201.833 508.5,204.167 508.5,206.5C 507.128,210.623 506.628,214.957 507,219.5C 507.589,221.863 509.089,222.863 511.5,222.5C 511.5,243.833 511.5,265.167 511.5,286.5C 507.962,286.215 506.129,287.882 506,291.5C 505.333,296.167 505.333,300.833 506,305.5C 506.2,307.32 507.034,308.653 508.5,309.5C 508.5,310.167 508.5,310.833 508.5,311.5C 508.5,314.833 508.5,318.167 508.5,321.5C 506.833,321.5 505.167,321.5 503.5,321.5C 503.5,323.167 503.5,324.833 503.5,326.5C 503.5,328.5 503.5,330.5 503.5,332.5C 503.5,333.833 503.5,335.167 503.5,336.5C 501.208,336.244 499.041,336.577 497,337.5C 496.199,340.367 496.366,343.034 497.5,345.5C 497.557,346.609 497.89,347.609 498.5,348.5C 498.5,350.167 498.5,351.833 498.5,353.5C 496.5,353.5 494.5,353.5 492.5,353.5C 492.5,355.5 492.5,357.5 492.5,359.5C 492.5,361.167 492.5,362.833 492.5,364.5C 490.5,364.5 488.5,364.5 486.5,364.5C 486.5,367.833 486.5,371.167 486.5,374.5C 484.833,374.5 483.167,374.5 481.5,374.5C 481.5,376.5 481.5,378.5 481.5,380.5C 481.5,382.167 481.5,383.833 481.5,385.5C 479.833,385.5 478.167,385.5 476.5,385.5C 476.5,387.5 476.5,389.5 476.5,391.5C 476.5,393.167 476.5,394.833 476.5,396.5C 474.833,396.5 473.167,396.5 471.5,396.5C 471.5,398.5 471.5,400.5 471.5,402.5C 471.5,404.167 471.5,405.833 471.5,407.5C 469.833,407.5 468.167,407.5 466.5,407.5C 466.784,409.415 466.451,411.081 465.5,412.5C 465.5,411.5 465.5,410.5 465.5,409.5C 463.076,409.192 460.743,409.526 458.5,410.5C 454.35,414.806 450.684,419.473 447.5,424.5C 444.166,425.561 442.666,427.895 443,431.5C 441.644,432.38 440.144,432.714 438.5,432.5C 439.5,437.5 437.5,439.5 432.5,438.5C 432.938,442.908 430.938,444.575 426.5,443.5C 426.762,444.978 426.429,446.311 425.5,447.5C 422.433,449.891 419.1,451.891 415.5,453.5C 414.749,455.996 413.749,458.33 412.5,460.5C 412.5,462.167 412.5,463.833 412.5,465.5C 411.081,466.451 409.415,466.784 407.5,466.5C 405.735,465.539 403.735,465.205 401.5,465.5C 401.251,468.744 399.584,470.744 396.5,471.5C 396.5,473.167 396.5,474.833 396.5,476.5C 394.833,476.5 393.167,476.5 391.5,476.5C 389.5,476.5 387.5,476.5 385.5,476.5C 383.744,477.552 383.077,479.219 383.5,481.5C 380.5,481.5 377.5,481.5 374.5,481.5C 374.5,483.167 374.5,484.833 374.5,486.5C 371.167,486.5 367.833,486.5 364.5,486.5C 364.5,488.5 364.5,490.5 364.5,492.5C 362.833,492.5 361.167,492.5 359.5,492.5C 357.5,492.5 355.5,492.5 353.5,492.5C 353.5,494.5 353.5,496.5 353.5,498.5C 351.833,498.5 350.167,498.5 348.5,498.5C 345.713,497.523 342.713,497.19 339.5,497.5C 339.5,499.5 339.5,501.5 339.5,503.5C 337.167,503.5 334.833,503.5 332.5,503.5C 331.167,503.5 329.833,503.5 328.5,503.5C 326.372,502.371 324.039,502.204 321.5,503C 320.594,504.699 320.261,506.533 320.5,508.5C 317.5,508.5 314.5,508.5 311.5,508.5C 309.167,508.5 306.833,508.5 304.5,508.5C 299.833,508.5 295.167,508.5 290.5,508.5C 290.5,509.5 290.5,510.5 290.5,511.5C 267.833,511.5 245.167,511.5 222.5,511.5C 222.671,509.007 221.671,507.174 219.5,506C 213.355,504.897 207.689,505.73 202.5,508.5C 201.5,508.5 200.5,508.5 199.5,508.5C 197.167,508.5 194.833,508.5 192.5,508.5C 193.667,502.504 191.334,500.004 185.5,501C 183.389,501.845 181.389,502.678 179.5,503.5C 179.167,503.5 178.833,503.5 178.5,503.5C 176.833,503.5 175.167,503.5 173.5,503.5C 173.5,501.5 173.5,499.5 173.5,497.5C 169.629,497.185 165.962,497.518 162.5,498.5C 160.833,498.5 159.167,498.5 157.5,498.5C 157.5,496.5 157.5,494.5 157.5,492.5C 155.5,492.5 153.5,492.5 151.5,492.5C 149.833,492.5 148.167,492.5 146.5,492.5C 146.5,490.5 146.5,488.5 146.5,486.5C 143.167,486.5 139.833,486.5 136.5,486.5C 136.5,484.833 136.5,483.167 136.5,481.5C 133.813,481.664 131.146,481.497 128.5,481C 127.594,479.301 127.261,477.467 127.5,475.5C 124.941,475.198 122.607,475.532 120.5,476.5C 120.167,476.5 119.833,476.5 119.5,476.5C 119.167,476.5 118.833,476.5 118.5,476.5C 118.076,471.006 115.076,469.006 109.5,470.5C 109.5,468.833 109.5,467.167 109.5,465.5C 107.265,465.205 105.265,465.539 103.5,466.5C 101.585,466.784 99.9187,466.451 98.5,465.5C 98.9227,463.219 98.256,461.552 96.5,460.5C 95.129,458.541 94.129,456.375 93.5,454C 91.8659,453.506 90.1992,453.34 88.5,453.5C 88.5,452.167 88.5,450.833 88.5,449.5C 84.6246,450.126 82.7913,448.459 83,444.5C 79.4079,444.074 77.9079,442.074 78.5,438.5C 76.5,438.5 74.5,438.5 72.5,438.5C 73.5749,434.062 71.9083,432.062 67.5,432.5C 67.9427,428.471 66.1094,426.471 62,426.5C 61.51,425.207 61.3433,423.873 61.5,422.5C 60.1667,422.5 58.8333,422.5 57.5,422.5C 57.9227,420.219 57.256,418.552 55.5,417.5C 53.8333,417.5 52.1667,417.5 50.5,417.5C 50.5,415.833 50.5,414.167 50.5,412.5C 48.8333,412.5 47.1667,412.5 45.5,412.5C 44.5489,411.081 44.2155,409.415 44.5,407.5C 45.7969,405.307 45.7969,402.973 44.5,400.5C 42.3635,399.528 41.1968,397.861 41,395.5C 38.8368,394.232 36.6702,394.232 34.5,395.5C 34.5,394.167 34.5,392.833 34.5,391.5C 34.5,389.167 34.5,386.833 34.5,384.5C 32.8333,384.5 31.1667,384.5 29.5,384.5C 29.5,383.167 29.5,381.833 29.5,380.5C 29.5,378.5 29.5,376.5 29.5,374.5C 27.8333,374.5 26.1667,374.5 24.5,374.5C 24.5,371.167 24.5,367.833 24.5,364.5C 22.5,364.5 20.5,364.5 18.5,364.5C 18.5,362.833 18.5,361.167 18.5,359.5C 18.5,357.5 18.5,355.5 18.5,353.5C 16.5,353.5 14.5,353.5 12.5,353.5C 12.5,351.833 12.5,350.167 12.5,348.5C 13.4816,345.038 13.815,341.371 13.5,337.5C 11.5,337.5 9.5,337.5 7.5,337.5C 7.5,335.833 7.5,334.167 7.5,332.5C 7.5,332.167 7.5,331.833 7.5,331.5C 8.6872,328.02 9.1872,324.353 9,320.5C 7.24583,318.75 5.07917,318.083 2.5,318.5C 2.5,316.167 2.5,313.833 2.5,311.5C 2.5,310.5 2.5,309.5 2.5,308.5C 5.84048,301.726 6.17381,294.726 3.5,287.5C 2.31116,286.571 0.977822,286.238 -0.5,286.5C -0.5,265.5 -0.5,244.5 -0.5,223.5C 2.85953,224.21 4.69287,222.876 5,219.5C 5.66667,215.833 5.66667,212.167 5,208.5C 4.79959,206.68 3.96626,205.347 2.5,204.5C 2.5,202.833 2.5,201.167 2.5,199.5C 2.5,196.167 2.5,192.833 2.5,189.5C 4.16667,189.5 5.83333,189.5 7.5,189.5C 7.5,185.833 7.5,182.167 7.5,178.5C 7.5,176.833 7.5,175.167 7.5,173.5C 9.5,173.5 11.5,173.5 13.5,173.5C 13.815,169.629 13.4816,165.962 12.5,162.5C 12.5,160.833 12.5,159.167 12.5,157.5C 14.5,157.5 16.5,157.5 18.5,157.5C 18.5,155.5 18.5,153.5 18.5,151.5C 18.5,150.167 18.5,148.833 18.5,147.5C 20.5,147.5 22.5,147.5 24.5,147.5C 24.335,144.15 24.5017,140.817 25,137.5C 26.3561,136.62 27.8561,136.286 29.5,136.5C 29.5,133.167 29.5,129.833 29.5,126.5C 31.4147,126.784 33.0813,126.451 34.5,125.5C 34.5,123.5 34.5,121.5 34.5,119.5C 34.5,118.5 34.5,117.5 34.5,116.5C 38.8365,117.424 41.3365,115.757 42,111.5C 45.4777,109.605 46.311,106.938 44.5,103.5C 44.2155,101.585 44.5489,99.9187 45.5,98.5C 46.1342,99.9468 47.3009,100.613 49,100.5C 51.2599,97.9297 54.0932,96.0964 57.5,95C 58.1905,93.9326 58.6905,92.7659 59,91.5C 62.5,88 66,84.5 69.5,81C 72.6121,80.375 74.4454,78.5417 75,75.5C 78.3063,74.8604 80.3063,72.8604 81,69.5C 84.5,66 88,62.5 91.5,59C 92.7659,58.6905 93.9326,58.1905 95,57.5C 96.0964,54.0932 97.9297,51.2599 100.5,49C 100.613,47.3009 99.9468,46.1342 98.5,45.5C 99.9187,44.5489 101.585,44.2155 103.5,44.5C 105.265,45.4614 107.265,45.7947 109.5,45.5C 109.286,43.8561 109.62,42.3561 110.5,41C 112.81,40.5034 115.143,40.3367 117.5,40.5C 117.07,35.5036 118.403,34.6702 121.5,38C 127.21,39.6247 130.044,37.4581 130,31.5C 132.737,32.6105 135.571,32.7772 138.5,32C 139.26,30.5589 139.926,29.0589 140.5,27.5C 143.447,26.6786 146.447,26.1786 149.5,26C 150.435,23.6194 150.768,21.1194 150.5,18.5C 150.833,18.5 151.167,18.5 151.5,18.5C 153.5,18.5 155.5,18.5 157.5,18.5C 157.5,16.5 157.5,14.5 157.5,12.5C 159.167,12.5 160.833,12.5 162.5,12.5C 165.962,13.4816 169.629,13.815 173.5,13.5C 173.5,11.5 173.5,9.5 173.5,7.5C 175.167,7.5 176.833,7.5 178.5,7.5C 182.452,8.27209 186.452,8.60542 190.5,8.5C 190.5,6.5 190.5,4.5 190.5,2.5C 193.5,2.5 196.5,2.5 199.5,2.5C 205.167,2.5 210.833,2.5 216.5,2.5C 216.5,1.5 216.5,0.5 216.5,-0.5 Z"/></g>
<g><path style="opacity:0.362" fill="#7d7d7d" d="M 294.5,-0.5 C 300.167,-0.5 305.833,-0.5 311.5,-0.5C 311.5,0.5 311.5,1.5 311.5,2.5C 305.833,2.5 300.167,2.5 294.5,2.5C 294.5,1.5 294.5,0.5 294.5,-0.5 Z"/></g>
<g><path style="opacity:0.175" fill="#6b6b6b" d="M 190.5,2.5 C 190.5,4.5 190.5,6.5 190.5,8.5C 186.452,8.60542 182.452,8.27209 178.5,7.5C 178.286,5.85613 178.62,4.35613 179.5,3C 183.152,2.50137 186.818,2.3347 190.5,2.5 Z"/></g>
<g><path style="opacity:0.061" fill="#828282" d="M 320.5,2.5 C 324.5,2.5 328.5,2.5 332.5,2.5C 332.5,4.16667 332.5,5.83333 332.5,7.5C 328.5,7.5 324.5,7.5 320.5,7.5C 320.5,5.83333 320.5,4.16667 320.5,2.5 Z"/></g>
<g><path style="opacity:0.112" fill="#9c9c9c" d="M 173.5,7.5 C 173.5,9.5 173.5,11.5 173.5,13.5C 169.629,13.815 165.962,13.4816 162.5,12.5C 162.286,10.8561 162.62,9.35613 163.5,8C 166.817,7.50166 170.15,7.33499 173.5,7.5 Z"/></g>
<g><path style="opacity:0.096" fill="#808080" d="M 157.5,12.5 C 157.5,14.5 157.5,16.5 157.5,18.5C 155.5,18.5 153.5,18.5 151.5,18.5C 150.5,13.5 152.5,11.5 157.5,12.5 Z"/></g>
<g><path style="opacity:0.122" fill="#9d9d9d" d="M 337.5,7.5 C 340.85,7.33499 344.183,7.50166 347.5,8C 348.38,9.35613 348.714,10.8561 348.5,12.5C 344.901,13.3439 341.234,13.6773 337.5,13.5C 337.5,11.5 337.5,9.5 337.5,7.5 Z"/></g>
<g><path style="opacity:0.005" fill="#000000" d="M 359.5,13.5 C 362.352,13.9361 364.019,15.6027 364.5,18.5C 364.167,18.5 363.833,18.5 363.5,18.5C 363.167,18.5 362.833,18.5 362.5,18.5C 361.075,17.078 360.075,15.4113 359.5,13.5 Z"/></g>
<g><path style="opacity:0.129" fill="#787878" d="M 353.5,12.5 C 355.621,12.3253 357.621,12.6586 359.5,13.5C 360.075,15.4113 361.075,17.078 362.5,18.5C 359.5,18.5 356.5,18.5 353.5,18.5C 353.5,16.5 353.5,14.5 353.5,12.5 Z"/></g>
<g><path style="opacity:0.005" fill="#000000" d="M 370.5,18.5 C 373.702,18.5367 375.368,20.2033 375.5,23.5C 375.167,23.5 374.833,23.5 374.5,23.5C 373.167,21.8333 371.833,20.1667 370.5,18.5 Z"/></g>
<g><path style="opacity:0.016" fill="#363636" d="M 140.5,18.5 C 141.301,20.0418 141.634,21.7085 141.5,23.5C 139.5,23.5 137.5,23.5 135.5,23.5C 135.632,20.2033 137.298,18.5367 140.5,18.5 Z"/></g>
<g><path style="opacity:0.016" fill="#515151" d="M 369.5,18.5 C 369.833,18.5 370.167,18.5 370.5,18.5C 371.833,20.1667 373.167,21.8333 374.5,23.5C 372.833,23.5 371.167,23.5 369.5,23.5C 369.5,21.8333 369.5,20.1667 369.5,18.5 Z"/></g>
<g><path style="opacity:0.005" fill="#000000" d="M 130.5,24.5 C 130.5,25.1667 130.5,25.8333 130.5,26.5C 128.989,27.5025 127.322,28.1692 125.5,28.5C 125.967,25.7026 127.633,24.3692 130.5,24.5 Z"/></g>
<g><path style="opacity:0.005" fill="#000000" d="M 380.5,24.5 C 383.367,24.3692 385.033,25.7026 385.5,28.5C 382.931,28.2623 381.265,26.929 380.5,24.5 Z"/></g>
<g><path style="opacity:0.229" fill="#c0c0c0" d="M 140.5,18.5 C 142.833,18.5 145.167,18.5 147.5,18.5C 147.5,20.5 147.5,22.5 147.5,24.5C 143.833,24.5 140.167,24.5 136.5,24.5C 136.5,26.1667 136.5,27.8333 136.5,29.5C 134.5,29.5 132.5,29.5 130.5,29.5C 130.5,28.5 130.5,27.5 130.5,26.5C 130.5,25.8333 130.5,25.1667 130.5,24.5C 131.919,23.5489 133.585,23.2155 135.5,23.5C 137.5,23.5 139.5,23.5 141.5,23.5C 141.634,21.7085 141.301,20.0418 140.5,18.5 Z"/></g>
<g><path style="opacity:0.325" fill="#bdbdbd" d="M 363.5,18.5 C 363.833,18.5 364.167,18.5 364.5,18.5C 366.167,18.5 367.833,18.5 369.5,18.5C 369.5,20.1667 369.5,21.8333 369.5,23.5C 371.167,23.5 372.833,23.5 374.5,23.5C 374.833,23.5 375.167,23.5 375.5,23.5C 377.415,23.2155 379.081,23.5489 380.5,24.5C 381.265,26.929 382.931,28.2623 385.5,28.5C 385.5,30.5 385.5,32.5 385.5,34.5C 386.833,34.5 388.167,34.5 389.5,34.5C 388.22,35.9313 386.553,36.5979 384.5,36.5C 384.5,34.1667 384.5,31.8333 384.5,29.5C 381.167,29.5 377.833,29.5 374.5,29.5C 374.5,27.8333 374.5,26.1667 374.5,24.5C 370.833,24.5 367.167,24.5 363.5,24.5C 363.5,22.5 363.5,20.5 363.5,18.5 Z"/></g>
<g><path style="opacity:0.1" fill="#878787" d="M 130.5,26.5 C 130.5,27.5 130.5,28.5 130.5,29.5C 126.5,28.8333 124.833,30.5 125.5,34.5C 123.5,34.5 121.5,34.5 119.5,34.5C 118.5,29.5 120.5,27.5 125.5,28.5C 127.322,28.1692 128.989,27.5025 130.5,26.5 Z"/></g>
<g><path style="opacity:0.1" fill="#838383" d="M 385.5,28.5 C 390.5,27.5 392.5,29.5 391.5,34.5C 390.833,34.5 390.167,34.5 389.5,34.5C 388.167,34.5 386.833,34.5 385.5,34.5C 385.5,32.5 385.5,30.5 385.5,28.5 Z"/></g>
<g><path style="opacity:0.071" fill="#e1e1e1" d="M 147.5,18.5 C 148.5,18.5 149.5,18.5 150.5,18.5C 150.768,21.1194 150.435,23.6194 149.5,26C 146.447,26.1786 143.447,26.6786 140.5,27.5C 139.926,29.0589 139.26,30.5589 138.5,32C 135.571,32.7772 132.737,32.6105 130,31.5C 130.044,37.4581 127.21,39.6247 121.5,38C 118.403,34.6702 117.07,35.5036 117.5,40.5C 115.143,40.3367 112.81,40.5034 110.5,41C 109.62,42.3561 109.286,43.8561 109.5,45.5C 107.265,45.7947 105.265,45.4614 103.5,44.5C 103.5,42.8333 103.5,41.1667 103.5,39.5C 105.167,39.5 106.833,39.5 108.5,39.5C 110.5,39.5 112.5,39.5 114.5,39.5C 114.5,37.8333 114.5,36.1667 114.5,34.5C 116.167,34.5 117.833,34.5 119.5,34.5C 121.5,34.5 123.5,34.5 125.5,34.5C 124.833,30.5 126.5,28.8333 130.5,29.5C 132.5,29.5 134.5,29.5 136.5,29.5C 136.5,27.8333 136.5,26.1667 136.5,24.5C 140.167,24.5 143.833,24.5 147.5,24.5C 147.5,22.5 147.5,20.5 147.5,18.5 Z"/></g>
<g><path style="opacity:0.052" fill="#3b3b3b" d="M 114.5,34.5 C 114.5,36.1667 114.5,37.8333 114.5,39.5C 112.5,39.5 110.5,39.5 108.5,39.5C 109.038,37.8828 109.371,36.2161 109.5,34.5C 111.167,34.5 112.833,34.5 114.5,34.5 Z"/></g>
<g><path style="opacity:0.057" fill="#3d3d3d" d="M 396.5,34.5 C 398.167,34.5 399.833,34.5 401.5,34.5C 401.629,36.2161 401.962,37.8828 402.5,39.5C 400.5,39.5 398.5,39.5 396.5,39.5C 396.5,37.8333 396.5,36.1667 396.5,34.5 Z"/></g>
<g><path style="opacity:0.148" fill="#c4c4c4" d="M 394.5,34.5 C 395.167,34.5 395.833,34.5 396.5,34.5C 396.5,36.1667 396.5,37.8333 396.5,39.5C 398.5,39.5 400.5,39.5 402.5,39.5C 404.167,39.5 405.833,39.5 407.5,39.5C 407.5,41.1667 407.5,42.8333 407.5,44.5C 405.393,45.4682 403.059,45.8016 400.5,45.5C 400.67,44.1779 400.337,43.0113 399.5,42C 394.975,41.6177 393.309,39.1177 394.5,34.5 Z"/></g>
<g><path style="opacity:1" fill="#b6e8da" d="M 314.5,45.5 C 320.092,45.0866 325.092,46.5866 329.5,50C 335.163,49.8843 339.997,51.7176 344,55.5C 346.856,56.2557 349.689,57.089 352.5,58C 353.337,59.0113 353.67,60.1779 353.5,61.5C 356.271,61.4207 358.937,61.9207 361.5,63C 365.817,65.5009 369.817,68.5009 373.5,72C 376.944,72.1107 379.277,73.7774 380.5,77C 382.167,77.3333 383.833,77.6667 385.5,78C 389.902,82.8823 394.902,86.8823 400.5,90C 401.255,92.1748 402.088,94.3415 403,96.5C 413.158,103.486 420.991,112.486 426.5,123.5C 418.584,114.581 410.25,105.914 401.5,97.5C 397.723,93.4587 394.057,89.292 390.5,85C 385.247,82.402 380.58,79.0687 376.5,75C 373.833,74.6667 371.167,74.3333 368.5,74C 364.921,69.377 360.254,66.5437 354.5,65.5C 349.943,65.8937 346.609,64.227 344.5,60.5C 338.747,58.9021 333.414,56.5688 328.5,53.5C 326.264,52.1802 323.93,50.8469 321.5,49.5C 314.909,48.3534 308.576,46.52 302.5,44C 273.203,39.873 243.869,39.5397 214.5,43C 200.349,46.4509 186.349,50.4509 172.5,55C 171.953,55.9246 171.287,56.7579 170.5,57.5C 165.79,57.8983 161.79,59.7317 158.5,63C 153.5,65.3333 148.5,67.6667 143.5,70C 140.39,73.4536 137.057,76.4536 133.5,79C 131.5,79.6667 129.5,80.3333 127.5,81C 117.865,90.3154 108.031,99.1487 98,107.5C 97.5172,108.448 97.3505,109.448 97.5,110.5C 95.8523,111.81 94.1856,113.143 92.5,114.5C 88.754,119.591 84.9207,124.591 81,129.5C 78.6865,132.497 77.0198,135.831 76,139.5C 74.3333,141.167 72.6667,142.833 71,144.5C 67.3402,150.783 63.6735,157.116 60,163.5C 59.499,168.345 57.8324,172.678 55,176.5C 55.4893,181.786 53.8226,186.119 50,189.5C 49.3568,197.645 47.1901,205.312 43.5,212.5C 42.6981,213.952 42.1981,215.618 42,217.5C 41.4482,229.693 40.6149,241.859 39.5,254C 40.6454,269.492 41.6454,284.992 42.5,300.5C 41.7784,300.082 41.2784,299.416 41,298.5C 37.71,277.295 36.71,255.962 38,234.5C 39.1584,229.543 39.9917,224.543 40.5,219.5C 40.5,216.833 40.5,214.167 40.5,211.5C 46.3922,196.495 51.7256,181.162 56.5,165.5C 60.8119,157.305 64.9786,148.972 69,140.5C 71.551,136.707 74.551,133.374 78,130.5C 80.0628,124.421 83.7294,119.421 89,115.5C 92.6549,108.69 97.4882,103.023 103.5,98.5C 107.576,95.6027 111.576,92.436 115.5,89C 116.167,87.6667 116.833,86.3333 117.5,85C 129.424,78.9325 140.424,71.5992 150.5,63C 154.568,63.2928 157.902,61.9595 160.5,59C 162.788,58.1779 165.122,57.5112 167.5,57C 172.041,52.8968 177.374,50.7301 183.5,50.5C 189.195,48.13 195.195,46.63 201.5,46C 203.793,44.369 206.293,43.2023 209,42.5C 239.487,37.3433 269.987,37.1766 300.5,42C 305.161,43.5587 309.827,44.7254 314.5,45.5 Z"/></g>
<g><path style="opacity:1" fill="#d1f0e8" d="M 314.5,45.5 C 309.827,44.7254 305.161,43.5587 300.5,42C 269.987,37.1766 239.487,37.3433 209,42.5C 206.293,43.2023 203.793,44.369 201.5,46C 195.195,46.63 189.195,48.13 183.5,50.5C 183.856,49.1301 184.69,48.1301 186,47.5C 189.128,46.7963 192.294,46.2963 195.5,46C 197.555,45.3128 199.221,44.1461 200.5,42.5C 204.313,41.8329 207.979,41.1663 211.5,40.5C 219.075,39.0388 226.742,37.8722 234.5,37C 250.167,36.3333 265.833,36.3333 281.5,37C 290.672,39.4418 300.006,41.1085 309.5,42C 311.584,42.6972 313.251,43.8639 314.5,45.5 Z"/></g>
<g><path style="opacity:1" fill="#84d9c1" d="M 328.5,53.5 C 323.627,54.0274 319.294,52.8607 315.5,50C 309.531,49.3658 303.865,47.6991 298.5,45C 271.167,44.3333 243.833,44.3333 216.5,45C 215.149,46.6171 213.482,47.7838 211.5,48.5C 204.858,49.3309 198.191,49.8309 191.5,50C 187.221,53.6487 182.221,55.3154 176.5,55C 173.875,57.9918 170.542,59.6585 166.5,60C 165.032,64.7419 161.699,66.9085 156.5,66.5C 156.369,70.1912 154.369,72.1912 150.5,72.5C 148.074,75.9169 144.741,77.2502 140.5,76.5C 140.714,78.1439 140.38,79.6439 139.5,81C 136.118,81.1764 132.785,81.6764 129.5,82.5C 128.528,84.6365 126.861,85.8032 124.5,86C 119.722,90.955 115.722,96.2883 112.5,102C 108.198,102.286 104.865,104.286 102.5,108C 100.922,109.094 99.2554,109.928 97.5,110.5C 97.3505,109.448 97.5172,108.448 98,107.5C 108.031,99.1487 117.865,90.3154 127.5,81C 129.5,80.3333 131.5,79.6667 133.5,79C 137.057,76.4536 140.39,73.4536 143.5,70C 148.5,67.6667 153.5,65.3333 158.5,63C 161.79,59.7317 165.79,57.8983 170.5,57.5C 171.287,56.7579 171.953,55.9246 172.5,55C 186.349,50.4509 200.349,46.4509 214.5,43C 243.869,39.5397 273.203,39.873 302.5,44C 308.576,46.52 314.909,48.3534 321.5,49.5C 323.93,50.8469 326.264,52.1802 328.5,53.5 Z"/></g>
<g><path style="opacity:1" fill="#69d0b3" d="M 328.5,53.5 C 333.414,56.5688 338.747,58.9021 344.5,60.5C 346.609,64.227 349.943,65.8937 354.5,65.5C 354.286,67.1439 354.62,68.6439 355.5,70C 360.051,69.7763 363.718,71.443 366.5,75C 368.167,75.3333 369.833,75.6667 371.5,76C 373.642,79.9097 376.975,82.0764 381.5,82.5C 382.859,84.6922 384.692,86.3589 387,87.5C 387.356,90.7288 389.19,92.2288 392.5,92C 394.242,95.8719 397.242,97.7053 401.5,97.5C 403.55,100.234 405.216,103.234 406.5,106.5C 411.868,110.906 416.034,116.239 419,122.5C 420.11,124.037 421.61,124.703 423.5,124.5C 423.696,127.796 425.362,130.129 428.5,131.5C 429.328,135.527 431.495,138.527 435,140.5C 437.334,145.167 439.667,149.834 442,154.5C 443.333,155.167 444.667,155.833 446,156.5C 449.07,163.216 451.403,170.216 453,177.5C 454.667,178.5 456,179.833 457,181.5C 459.965,190.956 461.965,200.623 463,210.5C 465.132,215.049 466.632,219.716 467.5,224.5C 467.5,225.833 467.5,227.167 467.5,228.5C 467.787,249.188 467.287,269.855 466,290.5C 462.448,297.338 460.448,304.671 460,312.5C 459.333,313.167 458.667,313.833 458,314.5C 456.775,319.085 456.275,323.752 456.5,328.5C 454.319,333.026 452.319,337.693 450.5,342.5C 444.783,348.405 440.949,355.405 439,363.5C 436.558,366.729 433.892,369.729 431,372.5C 430.667,374.5 430.333,376.5 430,378.5C 423.388,384.25 417.888,390.583 413.5,397.5C 409.5,396.833 407.833,398.5 408.5,402.5C 404.651,402.019 402.651,403.686 402.5,407.5C 400.801,407.34 399.134,407.506 397.5,408C 393.436,411.726 389.77,415.726 386.5,420C 383.933,422.097 380.933,423.43 377.5,424C 375.963,425.11 375.297,426.61 375.5,428.5C 371.869,429.608 368.869,431.774 366.5,435C 364.833,435.333 363.167,435.667 361.5,436C 360.663,437.011 360.33,438.178 360.5,439.5C 357.5,439.5 354.5,439.5 351.5,439.5C 351.167,441.5 350.833,443.5 350.5,445.5C 345.435,444.6 341.435,446.1 338.5,450C 333.345,449.715 329.012,451.382 325.5,455C 318.063,455.346 310.729,456.346 303.5,458C 299.315,460.847 294.982,463.514 290.5,466C 267.5,466.667 244.5,466.667 221.5,466C 220.833,464.667 219.833,463.667 218.5,463C 211.875,461.955 205.208,461.289 198.5,461C 193.337,457.829 187.671,456.162 181.5,456C 179.03,455.011 176.697,453.845 174.5,452.5C 168.628,450.619 162.962,448.286 157.5,445.5C 156.5,442.003 154.167,440.169 150.5,440C 148.634,435.645 145.301,433.812 140.5,434.5C 140.126,431.112 138.126,429.278 134.5,429C 132.981,427.649 131.648,426.149 130.5,424.5C 128.591,423.652 126.591,423.318 124.5,423.5C 124.67,422.178 124.337,421.011 123.5,420C 121.527,419.505 119.527,419.338 117.5,419.5C 117.762,418.022 117.429,416.689 116.5,415.5C 113.32,413.075 110.154,410.741 107,408.5C 105.333,405.5 103.667,402.5 102,399.5C 98.6567,399.352 96.6567,397.685 96,394.5C 93.1594,392.12 90.3261,389.787 87.5,387.5C 85.5645,381.783 83.0645,376.449 80,371.5C 78.9887,370.663 77.8221,370.33 76.5,370.5C 76.6567,369.127 76.49,367.793 76,366.5C 73.833,365.512 71.9997,364.179 70.5,362.5C 68.6452,360.967 66.8119,359.3 65,357.5C 65.004,352.333 63.1707,348 59.5,344.5C 58.2074,338.961 56.5407,333.627 54.5,328.5C 55.2276,323.327 53.7276,318.994 50,315.5C 49.1224,308.743 47.1224,302.409 44,296.5C 42.3884,268.513 42.2217,240.513 43.5,212.5C 47.1901,205.312 49.3568,197.645 50,189.5C 53.8226,186.119 55.4893,181.786 55,176.5C 57.8324,172.678 59.499,168.345 60,163.5C 63.6735,157.116 67.3402,150.783 71,144.5C 72.6667,142.833 74.3333,141.167 76,139.5C 77.0198,135.831 78.6865,132.497 81,129.5C 84.9207,124.591 88.754,119.591 92.5,114.5C 94.1856,113.143 95.8523,111.81 97.5,110.5C 99.2554,109.928 100.922,109.094 102.5,108C 104.865,104.286 108.198,102.286 112.5,102C 115.722,96.2883 119.722,90.955 124.5,86C 126.861,85.8032 128.528,84.6365 129.5,82.5C 132.785,81.6764 136.118,81.1764 139.5,81C 140.38,79.6439 140.714,78.1439 140.5,76.5C 144.741,77.2502 148.074,75.9169 150.5,72.5C 154.369,72.1912 156.369,70.1912 156.5,66.5C 161.699,66.9085 165.032,64.7419 166.5,60C 170.542,59.6585 173.875,57.9918 176.5,55C 182.221,55.3154 187.221,53.6487 191.5,50C 198.191,49.8309 204.858,49.3309 211.5,48.5C 213.482,47.7838 215.149,46.6171 216.5,45C 243.833,44.3333 271.167,44.3333 298.5,45C 303.865,47.6991 309.531,49.3658 315.5,50C 319.294,52.8607 323.627,54.0274 328.5,53.5 Z"/></g>
<g><path style="opacity:0.02" fill="#383838" d="M 412.5,45.5 C 414.167,45.5 415.833,45.5 417.5,45.5C 417.5,47.1667 417.5,48.8333 417.5,50.5C 415.833,50.5 414.167,50.5 412.5,50.5C 412.5,48.8333 412.5,47.1667 412.5,45.5 Z"/></g>
<g><path style="opacity:0.016" fill="#3e3e3e" d="M 98.5,45.5 C 98.5,47.1667 98.5,48.8333 98.5,50.5C 97.1667,50.5 95.8333,50.5 94.5,50.5C 94.1667,50.5 93.8333,50.5 93.5,50.5C 93.5,48.8333 93.5,47.1667 93.5,45.5C 95.1667,45.5 96.8333,45.5 98.5,45.5 Z"/></g>
<g><path style="opacity:0.046" fill="#3e3e3e" d="M 93.5,50.5 C 93.5,52.1667 93.5,53.8333 93.5,55.5C 91.5,55.5 89.5,55.5 87.5,55.5C 87.5,53.8333 87.5,52.1667 87.5,50.5C 89.5,50.5 91.5,50.5 93.5,50.5 Z"/></g>
<g><path style="opacity:0.046" fill="#414141" d="M 417.5,50.5 C 419.5,50.5 421.5,50.5 423.5,50.5C 423.5,52.1667 423.5,53.8333 423.5,55.5C 421.5,55.5 419.5,55.5 417.5,55.5C 417.5,53.8333 417.5,52.1667 417.5,50.5 Z"/></g>
<g><path style="opacity:1" fill="#e5f6f1" d="M 211.5,40.5 C 207.979,41.1663 204.313,41.8329 200.5,42.5C 199.221,44.1461 197.555,45.3128 195.5,46C 192.294,46.2963 189.128,46.7963 186,47.5C 184.69,48.1301 183.856,49.1301 183.5,50.5C 177.374,50.7301 172.041,52.8968 167.5,57C 165.122,57.5112 162.788,58.1779 160.5,59C 157.902,61.9595 154.568,63.2928 150.5,63C 140.424,71.5992 129.424,78.9325 117.5,85C 116.833,86.3333 116.167,87.6667 115.5,89C 111.576,92.436 107.576,95.6027 103.5,98.5C 103.297,96.6096 103.963,95.1096 105.5,94C 110.702,90.3886 115.535,86.5553 120,82.5C 120.494,80.8659 120.66,79.1992 120.5,77.5C 122.857,77.6633 125.19,77.4966 127.5,77C 130.167,74 132.833,71 135.5,68C 138.838,67.3347 141.505,65.6681 143.5,63C 146.351,61.7114 149.351,61.2114 152.5,61.5C 152.286,59.8561 152.62,58.3561 153.5,57C 157.937,56.7997 161.603,55.133 164.5,52C 167.818,51.1208 171.152,50.2875 174.5,49.5C 175.779,47.8539 177.445,46.6872 179.5,46C 186.497,46.5678 192.83,44.9011 198.5,41C 202.821,40.501 207.154,40.3343 211.5,40.5 Z"/></g>
<g><path style="opacity:0.229" fill="#bdbdbd" d="M 412.5,50.5 C 414.167,50.5 415.833,50.5 417.5,50.5C 417.5,52.1667 417.5,53.8333 417.5,55.5C 419.5,55.5 421.5,55.5 423.5,55.5C 425.167,55.5 426.833,55.5 428.5,55.5C 428.5,57.1667 428.5,58.8333 428.5,60.5C 433.5,59.5 435.5,61.5 434.5,66.5C 436.167,66.5 437.833,66.5 439.5,66.5C 439.5,68.1667 439.5,69.8333 439.5,71.5C 437.5,71.5 435.5,71.5 433.5,71.5C 433.5,69.8333 433.5,68.1667 433.5,66.5C 431.5,66.5 429.5,66.5 427.5,66.5C 427.5,64.8333 427.5,63.1667 427.5,61.5C 425.833,61.5 424.167,61.5 422.5,61.5C 422.5,60.1667 422.5,58.8333 422.5,57.5C 420.473,57.6621 418.473,57.4955 416.5,57C 415.781,54.3829 414.447,52.2162 412.5,50.5 Z"/></g>
<g><path style="opacity:0.148" fill="#bebebe" d="M 93.5,50.5 C 93.8333,50.5 94.1667,50.5 94.5,50.5C 95.9064,55.9313 93.9064,58.2647 88.5,57.5C 88.5,58.8333 88.5,60.1667 88.5,61.5C 86.8333,61.5 85.1667,61.5 83.5,61.5C 83.5,63.1667 83.5,64.8333 83.5,66.5C 81.5,66.5 79.5,66.5 77.5,66.5C 77.5,68.1667 77.5,69.8333 77.5,71.5C 75.5,71.5 73.5,71.5 71.5,71.5C 71.5,69.8333 71.5,68.1667 71.5,66.5C 73.1667,66.5 74.8333,66.5 76.5,66.5C 75.5,61.5 77.5,59.5 82.5,60.5C 82.5,58.8333 82.5,57.1667 82.5,55.5C 84.1667,55.5 85.8333,55.5 87.5,55.5C 89.5,55.5 91.5,55.5 93.5,55.5C 93.5,53.8333 93.5,52.1667 93.5,50.5 Z"/></g>
<g><path style="opacity:0.229" fill="#bebebe" d="M 71.5,71.5 C 71.5,73.5 71.5,75.5 71.5,77.5C 69.8333,77.5 68.1667,77.5 66.5,77.5C 66.5,79.1667 66.5,80.8333 66.5,82.5C 64.8333,82.5 63.1667,82.5 61.5,82.5C 61.5,84.5 61.5,86.5 61.5,88.5C 60.1667,88.5 58.8333,88.5 57.5,88.5C 57.6602,90.1992 57.4935,91.8659 57,93.5C 54.846,94.2301 52.6794,94.8968 50.5,95.5C 50.5,94.8333 50.5,94.1667 50.5,93.5C 52.1667,93.5 53.8333,93.5 55.5,93.5C 55.5,91.5 55.5,89.5 55.5,87.5C 55.5,85.8333 55.5,84.1667 55.5,82.5C 57.1667,82.5 58.8333,82.5 60.5,82.5C 59.5,77.5 61.5,75.5 66.5,76.5C 66.5,74.8333 66.5,73.1667 66.5,71.5C 68.1667,71.5 69.8333,71.5 71.5,71.5 Z"/></g>
<g><path style="opacity:0.542" fill="#e3e3e3" d="M 98.5,45.5 C 99.9468,46.1342 100.613,47.3009 100.5,49C 97.9297,51.2599 96.0964,54.0932 95,57.5C 93.9326,58.1905 92.7659,58.6905 91.5,59C 88,62.5 84.5,66 81,69.5C 80.3063,72.8604 78.3063,74.8604 75,75.5C 74.4454,78.5417 72.6121,80.375 69.5,81C 66,84.5 62.5,88 59,91.5C 58.6905,92.7659 58.1905,93.9326 57.5,95C 54.0932,96.0964 51.2599,97.9297 49,100.5C 47.3009,100.613 46.1342,99.9468 45.5,98.5C 47.1667,98.5 48.8333,98.5 50.5,98.5C 50.5,97.5 50.5,96.5 50.5,95.5C 52.6794,94.8968 54.846,94.2301 57,93.5C 57.4935,91.8659 57.6602,90.1992 57.5,88.5C 58.8333,88.5 60.1667,88.5 61.5,88.5C 61.5,86.5 61.5,84.5 61.5,82.5C 63.1667,82.5 64.8333,82.5 66.5,82.5C 66.5,80.8333 66.5,79.1667 66.5,77.5C 68.1667,77.5 69.8333,77.5 71.5,77.5C 71.5,75.5 71.5,73.5 71.5,71.5C 73.5,71.5 75.5,71.5 77.5,71.5C 77.5,69.8333 77.5,68.1667 77.5,66.5C 79.5,66.5 81.5,66.5 83.5,66.5C 83.5,64.8333 83.5,63.1667 83.5,61.5C 85.1667,61.5 86.8333,61.5 88.5,61.5C 88.5,60.1667 88.5,58.8333 88.5,57.5C 93.9064,58.2647 95.9064,55.9313 94.5,50.5C 95.8333,50.5 97.1667,50.5 98.5,50.5C 98.5,48.8333 98.5,47.1667 98.5,45.5 Z"/></g>
<g><path style="opacity:0.229" fill="#bfbfbf" d="M 439.5,71.5 C 441.167,71.5 442.833,71.5 444.5,71.5C 444.5,73.1667 444.5,74.8333 444.5,76.5C 449.5,75.5 451.5,77.5 450.5,82.5C 452.167,82.5 453.833,82.5 455.5,82.5C 455.5,84.1667 455.5,85.8333 455.5,87.5C 455.5,89.5 455.5,91.5 455.5,93.5C 457.167,93.5 458.833,93.5 460.5,93.5C 460.5,93.8333 460.5,94.1667 460.5,94.5C 455.069,95.9064 452.735,93.9064 453.5,88.5C 449.926,89.0921 447.926,87.5921 447.5,84C 446.552,83.5172 445.552,83.3505 444.5,83.5C 444.5,81.5 444.5,79.5 444.5,77.5C 442.833,77.5 441.167,77.5 439.5,77.5C 439.5,75.5 439.5,73.5 439.5,71.5 Z"/></g>
<g><path style="opacity:0.676" fill="#e8e8e8" d="M 412.5,45.5 C 412.5,47.1667 412.5,48.8333 412.5,50.5C 414.447,52.2162 415.781,54.3829 416.5,57C 418.473,57.4955 420.473,57.6621 422.5,57.5C 422.5,58.8333 422.5,60.1667 422.5,61.5C 424.167,61.5 425.833,61.5 427.5,61.5C 427.5,63.1667 427.5,64.8333 427.5,66.5C 429.5,66.5 431.5,66.5 433.5,66.5C 433.5,68.1667 433.5,69.8333 433.5,71.5C 435.5,71.5 437.5,71.5 439.5,71.5C 439.5,73.5 439.5,75.5 439.5,77.5C 441.167,77.5 442.833,77.5 444.5,77.5C 444.5,79.5 444.5,81.5 444.5,83.5C 445.552,83.3505 446.552,83.5172 447.5,84C 447.926,87.5921 449.926,89.0921 453.5,88.5C 452.735,93.9064 455.069,95.9064 460.5,94.5C 460.5,95.8333 460.5,97.1667 460.5,98.5C 462.167,98.5 463.833,98.5 465.5,98.5C 464.848,99.7251 463.681,100.392 462,100.5C 460.833,100.333 459.667,100.167 458.5,100C 457.331,98.1642 455.664,96.9976 453.5,96.5C 449.36,90.8595 444.693,85.6929 439.5,81C 436.124,80.6929 434.79,78.8595 435.5,75.5C 432.14,76.2096 430.307,74.8762 430,71.5C 426.805,70.1486 424.972,67.8153 424.5,64.5C 423.448,64.6495 422.448,64.4828 421.5,64C 420.24,61.0719 418.073,59.2386 415,58.5C 413.057,55.1734 411.557,51.6734 410.5,48C 410.684,46.6244 411.351,45.7911 412.5,45.5 Z"/></g>
<g><path style="opacity:0.064" fill="#3b3b3b" d="M 55.5,87.5 C 55.5,89.5 55.5,91.5 55.5,93.5C 53.8333,93.5 52.1667,93.5 50.5,93.5C 50.5,91.5 50.5,89.5 50.5,87.5C 52.1667,87.5 53.8333,87.5 55.5,87.5 Z"/></g>
<g><path style="opacity:0.075" fill="#464646" d="M 455.5,87.5 C 459.908,87.062 461.575,89.062 460.5,93.5C 458.833,93.5 457.167,93.5 455.5,93.5C 455.5,91.5 455.5,89.5 455.5,87.5 Z"/></g>
<g><path style="opacity:1" fill="#96dfca" d="M 354.5,65.5 C 360.254,66.5437 364.921,69.377 368.5,74C 371.167,74.3333 373.833,74.6667 376.5,75C 380.58,79.0687 385.247,82.402 390.5,85C 394.057,89.292 397.723,93.4587 401.5,97.5C 397.242,97.7053 394.242,95.8719 392.5,92C 389.19,92.2288 387.356,90.7288 387,87.5C 384.692,86.3589 382.859,84.6922 381.5,82.5C 376.975,82.0764 373.642,79.9097 371.5,76C 369.833,75.6667 368.167,75.3333 366.5,75C 363.718,71.443 360.051,69.7763 355.5,70C 354.62,68.6439 354.286,67.1439 354.5,65.5 Z"/></g>
<g><path style="opacity:0.02" fill="#383838" d="M 460.5,93.5 C 462.167,93.5 463.833,93.5 465.5,93.5C 465.5,95.1667 465.5,96.8333 465.5,98.5C 463.833,98.5 462.167,98.5 460.5,98.5C 460.5,97.1667 460.5,95.8333 460.5,94.5C 460.5,94.1667 460.5,93.8333 460.5,93.5 Z"/></g>
<g><path style="opacity:0.016" fill="#3e3e3e" d="M 50.5,93.5 C 50.5,94.1667 50.5,94.8333 50.5,95.5C 50.5,96.5 50.5,97.5 50.5,98.5C 48.8333,98.5 47.1667,98.5 45.5,98.5C 45.5,96.8333 45.5,95.1667 45.5,93.5C 47.1667,93.5 48.8333,93.5 50.5,93.5 Z"/></g>
<g><path style="opacity:0.153" fill="#c8c8c8" d="M 466.5,103.5 C 468.167,103.5 469.833,103.5 471.5,103.5C 471.5,105.167 471.5,106.833 471.5,108.5C 471.5,110.5 471.5,112.5 471.5,114.5C 473.167,114.5 474.833,114.5 476.5,114.5C 476.5,115.167 476.5,115.833 476.5,116.5C 474.396,116.799 472.396,116.466 470.5,115.5C 470.021,113.111 468.688,111.444 466.5,110.5C 465.203,108.027 465.203,105.693 466.5,103.5 Z"/></g>
<g><path style="opacity:0.059" fill="#373737" d="M 39.5,108.5 C 39.5,110.5 39.5,112.5 39.5,114.5C 37.8333,114.5 36.1667,114.5 34.5,114.5C 34.5,112.833 34.5,111.167 34.5,109.5C 36.2161,109.371 37.8828,109.038 39.5,108.5 Z"/></g>
<g><path style="opacity:0.042" fill="#3d3d3d" d="M 471.5,108.5 C 473.042,109.301 474.708,109.634 476.5,109.5C 476.5,111.167 476.5,112.833 476.5,114.5C 474.833,114.5 473.167,114.5 471.5,114.5C 471.5,112.5 471.5,110.5 471.5,108.5 Z"/></g>
<g><path style="opacity:0.184" fill="#c6c6c6" d="M 44.5,103.5 C 46.311,106.938 45.4777,109.605 42,111.5C 41.3365,115.757 38.8365,117.424 34.5,116.5C 34.5,115.833 34.5,115.167 34.5,114.5C 36.1667,114.5 37.8333,114.5 39.5,114.5C 39.5,112.5 39.5,110.5 39.5,108.5C 39.5,106.833 39.5,105.167 39.5,103.5C 41.1667,103.5 42.8333,103.5 44.5,103.5 Z"/></g>
<g><path style="opacity:0.1" fill="#838383" d="M 34.5,119.5 C 34.5,121.5 34.5,123.5 34.5,125.5C 32.5,125.5 30.5,125.5 28.5,125.5C 27.5,120.5 29.5,118.5 34.5,119.5 Z"/></g>
<g><path style="opacity:0.1" fill="#838383" d="M 476.5,119.5 C 481.5,118.5 483.5,120.5 482.5,125.5C 480.5,125.5 478.5,125.5 476.5,125.5C 476.5,123.833 476.5,122.167 476.5,120.5C 476.5,120.167 476.5,119.833 476.5,119.5 Z"/></g>
<g><path style="opacity:1" fill="#fefefe" d="M 290.5,258.5 C 289.178,258.33 288.011,258.663 287,259.5C 286.627,264.032 284.46,267.366 280.5,269.5C 277.27,269.561 275.437,271.228 275,274.5C 271.14,278.36 267.306,282.194 263.5,286C 261.261,288.044 258.761,289.544 256,290.5C 253.263,288.919 250.429,287.419 247.5,286C 246.9,282.564 244.9,280.731 241.5,280.5C 241.817,276.828 240.151,275.162 236.5,275.5C 236.714,273.856 236.38,272.356 235.5,271C 233.414,270.685 231.414,270.185 229.5,269.5C 229.092,265.917 227.925,262.583 226,259.5C 221.379,254.932 219.379,249.266 220,242.5C 219.803,240.139 218.636,238.472 216.5,237.5C 214.168,217.54 213.835,197.54 215.5,177.5C 218.429,168.482 222.096,159.815 226.5,151.5C 229.418,150.081 230.918,147.748 231,144.5C 233.454,142.559 235.287,140.225 236.5,137.5C 236.5,136.833 236.5,136.167 236.5,135.5C 237.922,135.291 239.255,134.791 240.5,134C 243.748,130.684 247.081,127.35 250.5,124C 254.581,121.939 258.581,122.106 262.5,124.5C 267.454,129.626 272.287,134.959 277,140.5C 277.615,142.116 278.615,143.449 280,144.5C 280.495,146.473 280.662,148.473 280.5,150.5C 281.873,150.343 283.207,150.51 284.5,151C 285.71,154.163 287.376,156.996 289.5,159.5C 290.265,163.325 290.932,167.158 291.5,171C 292.673,172.505 293.839,174.005 295,175.5C 295.674,186.389 297.507,197.056 300.5,207.5C 297.421,218.205 295.588,229.205 295,240.5C 293.287,241.878 291.953,243.545 291,245.5C 290.501,249.821 290.334,254.154 290.5,258.5 Z"/></g>
<g><path style="opacity:0.005" fill="#000000" d="M 28.5,125.5 C 28.2623,128.069 26.929,129.735 24.5,130.5C 24.3692,127.633 25.7026,125.967 28.5,125.5 Z"/></g>
<g><path style="opacity:0.005" fill="#000000" d="M 482.5,125.5 C 485.297,125.967 486.631,127.633 486.5,130.5C 484.071,129.735 482.738,128.069 482.5,125.5 Z"/></g>
<g><path style="opacity:0.229" fill="#bcbcbc" d="M 476.5,120.5 C 476.5,122.167 476.5,123.833 476.5,125.5C 478.5,125.5 480.5,125.5 482.5,125.5C 482.738,128.069 484.071,129.735 486.5,130.5C 487.451,131.919 487.784,133.585 487.5,135.5C 487.5,135.833 487.5,136.167 487.5,136.5C 487.5,138.167 487.5,139.833 487.5,141.5C 489.167,141.5 490.833,141.5 492.5,141.5C 492.5,143.5 492.5,145.5 492.5,147.5C 490.5,147.5 488.5,147.5 486.5,147.5C 486.5,143.833 486.5,140.167 486.5,136.5C 484.833,136.5 483.167,136.5 481.5,136.5C 481.5,133.5 481.5,130.5 481.5,127.5C 479.5,127.5 477.5,127.5 475.5,127.5C 475.198,124.941 475.532,122.607 476.5,120.5 Z"/></g>
<g><path style="opacity:0.221" fill="#bababa" d="M 28.5,125.5 C 30.5,125.5 32.5,125.5 34.5,125.5C 33.0813,126.451 31.4147,126.784 29.5,126.5C 29.5,129.833 29.5,133.167 29.5,136.5C 27.8561,136.286 26.3561,136.62 25,137.5C 24.5017,140.817 24.335,144.15 24.5,147.5C 22.5,147.5 20.5,147.5 18.5,147.5C 18.5,145.167 18.5,142.833 18.5,140.5C 18.8333,140.5 19.1667,140.5 19.5,140.5C 20.5676,141.434 21.901,141.768 23.5,141.5C 23.5,139.833 23.5,138.167 23.5,136.5C 23.5,136.167 23.5,135.833 23.5,135.5C 23.2155,133.585 23.5489,131.919 24.5,130.5C 26.929,129.735 28.2623,128.069 28.5,125.5 Z"/></g>
<g><path style="opacity:0.005" fill="#000000" d="M 23.5,135.5 C 23.5,135.833 23.5,136.167 23.5,136.5C 21.8333,137.5 20.5,138.833 19.5,140.5C 19.1667,140.5 18.8333,140.5 18.5,140.5C 18.5367,137.298 20.2033,135.632 23.5,135.5 Z"/></g>
<g><path style="opacity:0.005" fill="#000000" d="M 487.5,136.5 C 487.5,136.167 487.5,135.833 487.5,135.5C 490.797,135.632 492.463,137.298 492.5,140.5C 490.833,139.167 489.167,137.833 487.5,136.5 Z"/></g>
<g><path style="opacity:0.016" fill="#505050" d="M 23.5,136.5 C 23.5,138.167 23.5,139.833 23.5,141.5C 21.901,141.768 20.5676,141.434 19.5,140.5C 20.5,138.833 21.8333,137.5 23.5,136.5 Z"/></g>
<g><path style="opacity:0.016" fill="#535353" d="M 487.5,136.5 C 489.167,137.833 490.833,139.167 492.5,140.5C 492.5,140.833 492.5,141.167 492.5,141.5C 490.833,141.5 489.167,141.5 487.5,141.5C 487.5,139.833 487.5,138.167 487.5,136.5 Z"/></g>
<g><path style="opacity:0.096" fill="#7f7f7f" d="M 18.5,151.5 C 18.5,153.5 18.5,155.5 18.5,157.5C 16.5,157.5 14.5,157.5 12.5,157.5C 11.5,152.5 13.5,150.5 18.5,151.5 Z"/></g>
<g><path style="opacity:0.096" fill="#7d7d7d" d="M 492.5,151.5 C 497.5,150.5 499.5,152.5 498.5,157.5C 496.5,157.5 494.5,157.5 492.5,157.5C 492.5,155.5 492.5,153.5 492.5,151.5 Z"/></g>
<g><path style="opacity:0.056" fill="#393939" d="M 498.5,162.5 C 501.95,161.756 503.616,163.09 503.5,166.5C 502.07,166.421 500.736,166.754 499.5,167.5C 498.548,165.955 498.215,164.288 498.5,162.5 Z"/></g>
<g><path style="opacity:0.151" fill="#a2a2a2" d="M 12.5,162.5 C 13.4816,165.962 13.815,169.629 13.5,173.5C 11.5,173.5 9.5,173.5 7.5,173.5C 7.33499,170.15 7.50166,166.817 8,163.5C 9.35613,162.62 10.8561,162.286 12.5,162.5 Z"/></g>
<g><path style="opacity:0.116" fill="#acacac" d="M 498.5,162.5 C 498.215,164.288 498.548,165.955 499.5,167.5C 500.736,166.754 502.07,166.421 503.5,166.5C 503.5,168.833 503.5,171.167 503.5,173.5C 501.5,173.5 499.5,173.5 497.5,173.5C 497.185,169.629 497.518,165.962 498.5,162.5 Z"/></g>
<g><path style="opacity:1" fill="#d6f2ea" d="M 236.5,137.5 C 235.287,140.225 233.454,142.559 231,144.5C 230.918,147.748 229.418,150.081 226.5,151.5C 222.096,159.815 218.429,168.482 215.5,177.5C 212.655,186.92 210.989,196.754 210.5,207C 211.598,217.522 212.932,228.022 214.5,238.5C 208.87,225.501 207.037,211.834 209,197.5C 210.611,190.561 211.944,183.561 213,176.5C 215,171.167 217,165.833 219,160.5C 222.48,158.068 224.48,154.735 225,150.5C 228.223,149.277 229.889,146.944 230,143.5C 232.037,141.294 234.203,139.294 236.5,137.5 Z"/></g>
<g><path style="opacity:1" fill="#9ce0cd" d="M 401.5,97.5 C 410.25,105.914 418.584,114.581 426.5,123.5C 430.576,126.27 434.076,129.603 437,133.5C 439.411,138.687 441.911,143.687 444.5,148.5C 446.678,152.477 448.178,156.811 449,161.5C 452.25,165.805 454.916,170.472 457,175.5C 457.313,180.473 458.98,184.806 462,188.5C 463.29,192.73 463.79,197.064 463.5,201.5C 463.338,206.182 464.505,210.515 467,214.5C 467.498,217.817 467.665,221.15 467.5,224.5C 466.632,219.716 465.132,215.049 463,210.5C 461.965,200.623 459.965,190.956 457,181.5C 456,179.833 454.667,178.5 453,177.5C 451.403,170.216 449.07,163.216 446,156.5C 444.667,155.833 443.333,155.167 442,154.5C 439.667,149.834 437.334,145.167 435,140.5C 431.495,138.527 429.328,135.527 428.5,131.5C 425.362,130.129 423.696,127.796 423.5,124.5C 421.61,124.703 420.11,124.037 419,122.5C 416.034,116.239 411.868,110.906 406.5,106.5C 405.216,103.234 403.55,100.234 401.5,97.5 Z"/></g>
<g><path style="opacity:0.02" fill="#393939" d="M 503.5,178.5 C 507.908,178.062 509.575,180.062 508.5,184.5C 506.958,183.699 505.292,183.366 503.5,183.5C 503.5,182.167 503.5,180.833 503.5,179.5C 503.5,179.167 503.5,178.833 503.5,178.5 Z"/></g>
<g><path style="opacity:0.141" fill="#616161" d="M 7.5,178.5 C 7.5,182.167 7.5,185.833 7.5,189.5C 5.83333,189.5 4.16667,189.5 2.5,189.5C 2.33499,186.15 2.50166,182.817 3,179.5C 4.35613,178.62 5.85613,178.286 7.5,178.5 Z"/></g>
<g><path style="opacity:0.586" fill="#cacaca" d="M 503.5,179.5 C 503.5,180.833 503.5,182.167 503.5,183.5C 503.5,185.5 503.5,187.5 503.5,189.5C 505.167,189.5 506.833,189.5 508.5,189.5C 508.5,190.5 508.5,191.5 508.5,192.5C 502.15,193.475 499.65,190.808 501,184.5C 501.985,182.825 502.819,181.158 503.5,179.5 Z"/></g>
<g><path style="opacity:0.086" fill="#747474" d="M 503.5,183.5 C 505.292,183.366 506.958,183.699 508.5,184.5C 508.5,186.167 508.5,187.833 508.5,189.5C 506.833,189.5 505.167,189.5 503.5,189.5C 503.5,187.5 503.5,185.5 503.5,183.5 Z"/></g>
<g><path style="opacity:1" fill="#ebf8f4" d="M 215.5,177.5 C 213.835,197.54 214.168,217.54 216.5,237.5C 218.636,238.472 219.803,240.139 220,242.5C 219.379,249.266 221.379,254.932 226,259.5C 227.925,262.583 229.092,265.917 229.5,269.5C 226.3,267.479 224.466,264.479 224,260.5C 218.983,253.943 215.816,246.609 214.5,238.5C 212.932,228.022 211.598,217.522 210.5,207C 210.989,196.754 212.655,186.92 215.5,177.5 Z"/></g>
<g><path style="opacity:1" fill="#ddf4ed" d="M 56.5,165.5 C 51.7256,181.162 46.3922,196.495 40.5,211.5C 40.3345,207.486 40.5012,203.486 41,199.5C 44.351,189.783 48.0177,180.117 52,170.5C 53.6783,168.93 55.1783,167.263 56.5,165.5 Z"/></g>
<g><path style="opacity:1" fill="#e4f6f1" d="M 444.5,148.5 C 445.496,148.414 446.329,148.748 447,149.5C 447.696,153.962 449.696,157.628 453,160.5C 453.413,163.232 454.08,165.899 455,168.5C 457,169.167 458.333,170.5 459,172.5C 459.559,176.186 460.226,179.853 461,183.5C 462,184.5 463,185.5 464,186.5C 465.195,194.087 467.529,201.087 471,207.5C 471.333,214.833 471.667,222.167 472,229.5C 472.667,230.833 473.333,232.167 474,233.5C 474.667,247.5 474.667,261.5 474,275.5C 471.036,284.511 469.369,293.844 469,303.5C 468.777,305.881 467.61,307.547 465.5,308.5C 467.203,303.716 468.369,298.716 469,293.5C 471.42,265.759 470.92,238.093 467.5,210.5C 466.167,207.373 464.834,204.373 463.5,201.5C 463.79,197.064 463.29,192.73 462,188.5C 458.98,184.806 457.313,180.473 457,175.5C 454.916,170.472 452.25,165.805 449,161.5C 448.178,156.811 446.678,152.477 444.5,148.5 Z"/></g>
<g><path style="opacity:0.039" fill="#424242" d="M -0.5,199.5 C 0.5,199.5 1.5,199.5 2.5,199.5C 2.5,201.167 2.5,202.833 2.5,204.5C 2.5,204.833 2.5,205.167 2.5,205.5C 1.5,205.5 0.5,205.5 -0.5,205.5C -0.5,203.5 -0.5,201.5 -0.5,199.5 Z"/></g>
<g><path style="opacity:1" fill="#b5e7d9" d="M 291.5,157.5 C 295.611,162.231 298.277,167.564 299.5,173.5C 300.155,177.812 301.655,181.812 304,185.5C 304.667,200.167 304.667,214.833 304,229.5C 301.797,235.225 299.63,240.892 297.5,246.5C 297.561,237.918 299.061,229.585 302,221.5C 302.667,211.167 302.667,200.833 302,190.5C 299.56,179.042 296.06,168.042 291.5,157.5 Z"/></g>
<g><path style="opacity:0.29" fill="#6b6b6b" d="M 508.5,199.5 C 509.5,199.5 510.5,199.5 511.5,199.5C 511.5,205.167 511.5,210.833 511.5,216.5C 510.5,216.5 509.5,216.5 508.5,216.5C 508.5,213.167 508.5,209.833 508.5,206.5C 508.5,204.167 508.5,201.833 508.5,199.5 Z"/></g>
<g><path style="opacity:0.316" fill="#7c7c7c" d="M -0.5,205.5 C 0.5,205.5 1.5,205.5 2.5,205.5C 2.5,209.167 2.5,212.833 2.5,216.5C 1.5,216.5 0.5,216.5 -0.5,216.5C -0.5,212.833 -0.5,209.167 -0.5,205.5 Z"/></g>
<g><path style="opacity:0.522" fill="#b5b5b5" d="M 508.5,206.5 C 508.5,209.833 508.5,213.167 508.5,216.5C 509.5,216.5 510.5,216.5 511.5,216.5C 511.5,218.5 511.5,220.5 511.5,222.5C 509.089,222.863 507.589,221.863 507,219.5C 506.628,214.957 507.128,210.623 508.5,206.5 Z"/></g>
<g><path style="opacity:0.698" fill="#cecece" d="M 2.5,204.5 C 3.96626,205.347 4.79959,206.68 5,208.5C 5.66667,212.167 5.66667,215.833 5,219.5C 4.69287,222.876 2.85953,224.21 -0.5,223.5C -0.5,221.167 -0.5,218.833 -0.5,216.5C 0.5,216.5 1.5,216.5 2.5,216.5C 2.5,212.833 2.5,209.167 2.5,205.5C 2.5,205.167 2.5,204.833 2.5,204.5 Z"/></g>
<g><path style="opacity:1" fill="#b0e6d6" d="M 274.5,133.5 C 271.732,131.913 269.065,130.08 266.5,128C 264.624,123.547 261.291,120.714 256.5,119.5C 253.893,120.137 251.56,121.304 249.5,123C 244.624,126.74 240.29,130.907 236.5,135.5C 236.5,136.167 236.5,136.833 236.5,137.5C 234.203,139.294 232.037,141.294 230,143.5C 229.889,146.944 228.223,149.277 225,150.5C 224.48,154.735 222.48,158.068 219,160.5C 217,165.833 215,171.167 213,176.5C 211.944,183.561 210.611,190.561 209,197.5C 207.037,211.834 208.87,225.501 214.5,238.5C 215.816,246.609 218.983,253.943 224,260.5C 224.466,264.479 226.3,267.479 229.5,269.5C 230.742,271.25 232.242,272.917 234,274.5C 234.49,275.793 234.657,277.127 234.5,278.5C 232.784,276.792 230.784,275.458 228.5,274.5C 228.13,270.625 226.296,267.625 223,265.5C 221.781,261.793 219.948,258.46 217.5,255.5C 217.657,254.127 217.49,252.793 217,251.5C 214.852,250.023 213.518,248.023 213,245.5C 212.097,237.649 210.43,229.983 208,222.5C 207.333,212.5 207.333,202.5 208,192.5C 209.745,188.004 210.579,183.338 210.5,178.5C 212.374,170.722 214.874,163.056 218,155.5C 220.84,152.56 223.506,149.56 226,146.5C 228.239,141.923 230.905,137.589 234,133.5C 240.159,128.507 245.992,123.174 251.5,117.5C 254.167,116.167 256.833,116.167 259.5,117.5C 264.48,122.741 269.48,128.074 274.5,133.5 Z"/></g>
<g><path style="opacity:1" fill="#7fd6bd" d="M 188.5,263.5 C 182.166,259 175.832,254.5 169.5,250C 167.302,249.627 165.135,249.127 163,248.5C 158.782,244.077 153.615,242.41 147.5,243.5C 145.934,240.259 143.267,238.759 139.5,239C 118.454,235.616 97.4536,235.949 76.5,240C 68.3253,243.412 66.1586,249.245 70,257.5C 72.5443,262.478 73.8777,267.812 74,273.5C 79.9174,280.906 84.9174,288.906 89,297.5C 90.129,299.141 91.629,300.141 93.5,300.5C 97.233,305.74 101.566,310.574 106.5,315C 109.5,316.667 112.5,318.333 115.5,320C 116.772,321.307 117.772,322.807 118.5,324.5C 123.91,326.549 129.244,328.549 134.5,330.5C 137.387,332.083 140.387,333.583 143.5,335C 150.317,335.738 156.984,337.071 163.5,339C 172.5,339.667 181.5,339.667 190.5,339C 201.389,336.613 212.056,333.613 222.5,330C 223.944,328.874 224.61,327.374 224.5,325.5C 223.905,322.86 223.572,320.193 223.5,317.5C 225.136,320.773 226.803,324.106 228.5,327.5C 221.93,334.774 213.597,338.274 203.5,338C 202.167,339 200.833,340 199.5,341C 185.867,342.504 172.2,342.837 158.5,342C 155.807,341.657 153.807,340.324 152.5,338C 145.833,337.667 139.167,337.333 132.5,337C 130.963,335.89 130.297,334.39 130.5,332.5C 128.345,332.628 126.345,332.128 124.5,331C 122.702,328.528 120.368,326.861 117.5,326C 116.707,324.915 116.04,323.748 115.5,322.5C 110.644,319.836 105.644,317.336 100.5,315C 100,311.833 98.1667,310 95,309.5C 93.5289,305.347 91.1956,301.68 88,298.5C 87.5172,297.552 87.3505,296.552 87.5,295.5C 83.5541,295.512 81.8874,293.512 82.5,289.5C 78.686,289.349 77.0193,287.349 77.5,283.5C 75.6096,283.703 74.1096,283.037 73,281.5C 71.9635,278.247 71.2969,274.914 71,271.5C 69.6667,270.167 68.3333,268.833 67,267.5C 66.1819,257.589 66.3485,247.756 67.5,238C 72.143,237.17 76.8097,236.503 81.5,236C 82.4992,233.239 84.4992,231.906 87.5,232C 102.167,231.333 116.833,231.333 131.5,232C 138.088,235.174 145.088,237.507 152.5,239C 153.337,240.011 153.67,241.178 153.5,242.5C 157.753,241.986 161.587,242.986 165,245.5C 165.483,246.448 165.649,247.448 165.5,248.5C 170.225,247.524 173.892,249.024 176.5,253C 180.305,252.974 182.305,254.808 182.5,258.5C 186.04,258.377 188.04,260.043 188.5,263.5 Z"/></g>
<g><path style="opacity:1" fill="#8cdac4" d="M 210.5,178.5 C 210.579,183.338 209.745,188.004 208,192.5C 207.333,202.5 207.333,212.5 208,222.5C 210.43,229.983 212.097,237.649 213,245.5C 213.518,248.023 214.852,250.023 217,251.5C 217.49,252.793 217.657,254.127 217.5,255.5C 216.322,252.802 214.489,250.469 212,248.5C 211.398,244.117 210.565,239.784 209.5,235.5C 208.522,235.023 207.689,234.357 207,233.5C 205.019,215.835 205.019,198.169 207,180.5C 207.816,179.177 208.983,178.511 210.5,178.5 Z"/></g>
<g><path style="opacity:1" fill="#caeee4" d="M 147.5,243.5 C 149.954,244.621 152.621,245.454 155.5,246C 161.654,249.243 167.654,252.743 173.5,256.5C 169.244,256.357 165.578,254.857 162.5,252C 158.043,251.857 154.377,250.19 151.5,247C 146.032,246.579 141.032,244.913 136.5,242C 121.533,240.668 106.533,240.168 91.5,240.5C 106.984,238.038 122.65,237.871 138.5,240C 141.072,242.287 144.072,243.453 147.5,243.5 Z"/></g>
<g><path style="opacity:1" fill="#e3f6f0" d="M 274.5,133.5 C 275.675,133.281 276.675,133.614 277.5,134.5C 283.837,141.166 288.504,148.833 291.5,157.5C 296.06,168.042 299.56,179.042 302,190.5C 302.667,200.833 302.667,211.167 302,221.5C 299.061,229.585 297.561,237.918 297.5,246.5C 294.795,250.277 292.462,254.277 290.5,258.5C 290.334,254.154 290.501,249.821 291,245.5C 291.953,243.545 293.287,241.878 295,240.5C 295.588,229.205 297.421,218.205 300.5,207.5C 297.507,197.056 295.674,186.389 295,175.5C 293.839,174.005 292.673,172.505 291.5,171C 290.932,167.158 290.265,163.325 289.5,159.5C 287.376,156.996 285.71,154.163 284.5,151C 283.207,150.51 281.873,150.343 280.5,150.5C 280.662,148.473 280.495,146.473 280,144.5C 278.615,143.449 277.615,142.116 277,140.5C 272.287,134.959 267.454,129.626 262.5,124.5C 258.581,122.106 254.581,121.939 250.5,124C 247.081,127.35 243.748,130.684 240.5,134C 239.255,134.791 237.922,135.291 236.5,135.5C 240.29,130.907 244.624,126.74 249.5,123C 251.56,121.304 253.893,120.137 256.5,119.5C 261.291,120.714 264.624,123.547 266.5,128C 269.065,130.08 271.732,131.913 274.5,133.5 Z"/></g>
<g><path style="opacity:1" fill="#fcfefd" d="M 91.5,240.5 C 106.533,240.168 121.533,240.668 136.5,242C 141.032,244.913 146.032,246.579 151.5,247C 154.377,250.19 158.043,251.857 162.5,252C 165.578,254.857 169.244,256.357 173.5,256.5C 177.668,263.162 183.335,268.329 190.5,272C 192.667,275.5 195.5,278.333 199,280.5C 202.281,285.781 206.281,290.447 211,294.5C 211.721,298.342 213.387,301.676 216,304.5C 216.92,307.101 217.587,309.768 218,312.5C 218.667,313.833 219.667,314.833 221,315.5C 222.29,319.73 222.79,324.064 222.5,328.5C 217.182,328.159 212.515,329.659 208.5,333C 188.833,333.667 169.167,333.667 149.5,333C 145.399,330.053 140.733,328.553 135.5,328.5C 132.039,325.676 128.039,324.009 123.5,323.5C 122.972,322.279 122.305,321.113 121.5,320C 118.79,318.253 115.79,317.253 112.5,317C 107.473,311.973 102.473,306.973 97.5,302C 96.0993,301.59 94.766,301.09 93.5,300.5C 91.6261,296.765 89.1261,293.432 86,290.5C 82.5979,283.475 79.0979,276.475 75.5,269.5C 74.6764,266.215 74.1764,262.882 74,259.5C 73.5272,257.221 72.5272,255.221 71,253.5C 70.5026,250.854 70.3359,248.187 70.5,245.5C 74.7709,244.731 78.7709,243.231 82.5,241C 85.4816,240.502 88.4816,240.335 91.5,240.5 Z"/></g>
<g><path style="opacity:1" fill="#aee5d5" d="M 147.5,243.5 C 144.072,243.453 141.072,242.287 138.5,240C 122.65,237.871 106.984,238.038 91.5,240.5C 88.4816,240.335 85.4816,240.502 82.5,241C 78.7709,243.231 74.7709,244.731 70.5,245.5C 70.3359,248.187 70.5026,250.854 71,253.5C 72.5272,255.221 73.5272,257.221 74,259.5C 74.1764,262.882 74.6764,266.215 75.5,269.5C 79.0979,276.475 82.5979,283.475 86,290.5C 89.1261,293.432 91.6261,296.765 93.5,300.5C 91.629,300.141 90.129,299.141 89,297.5C 84.9174,288.906 79.9174,280.906 74,273.5C 73.8777,267.812 72.5443,262.478 70,257.5C 66.1586,249.245 68.3253,243.412 76.5,240C 97.4536,235.949 118.454,235.616 139.5,239C 143.267,238.759 145.934,240.259 147.5,243.5 Z"/></g>
<g><path style="opacity:1" fill="#98dfcb" d="M 43.5,212.5 C 42.2217,240.513 42.3884,268.513 44,296.5C 47.1224,302.409 49.1224,308.743 50,315.5C 53.7276,318.994 55.2276,323.327 54.5,328.5C 53.6981,327.048 53.1981,325.382 53,323.5C 51.6667,322.833 50.6667,321.833 50,320.5C 49.0376,315.988 47.871,311.655 46.5,307.5C 44.412,305.664 43.0787,303.331 42.5,300.5C 41.6454,284.992 40.6454,269.492 39.5,254C 40.6149,241.859 41.4482,229.693 42,217.5C 42.1981,215.618 42.6981,213.952 43.5,212.5 Z"/></g>
<g><path style="opacity:1" fill="#fdfefe" d="M 435.5,246.5 C 437.948,254.036 437.448,261.702 434,269.5C 432.113,271.026 431.113,273.026 431,275.5C 427.204,277.741 424.871,281.074 424,285.5C 418.436,292.282 413.102,299.282 408,306.5C 396.503,316.004 384.003,323.338 370.5,328.5C 365.156,328.816 359.822,329.316 354.5,330C 353.09,330.368 352.09,331.201 351.5,332.5C 339.848,333.666 328.181,333.833 316.5,333C 315.122,331.287 313.455,329.953 311.5,329C 305.82,328.555 300.154,328.055 294.5,327.5C 294.25,322.42 294.75,317.42 296,312.5C 297.019,311.313 298.186,310.313 299.5,309.5C 301.843,304.968 304.009,300.301 306,295.5C 307.512,294.743 308.846,293.743 310,292.5C 312.409,288.936 314.576,285.27 316.5,281.5C 316.5,280.833 316.5,280.167 316.5,279.5C 318.308,279.509 319.975,279.009 321.5,278C 324.651,275.237 327.651,272.237 330.5,269C 334.5,266.667 338.5,264.333 342.5,262C 344.699,258.276 348.033,256.61 352.5,257C 353.728,254.86 355.395,253.193 357.5,252C 360.833,251.667 364.167,251.333 367.5,251C 368.357,250.311 369.023,249.478 369.5,248.5C 380.251,246.347 391.084,244.68 402,243.5C 413.126,245.011 424.292,246.011 435.5,246.5 Z"/></g>
<g><path style="opacity:1" fill="#9ee0cd" d="M 147.5,243.5 C 153.615,242.41 158.782,244.077 163,248.5C 165.135,249.127 167.302,249.627 169.5,250C 175.832,254.5 182.166,259 188.5,263.5C 188.694,265.912 190.027,266.912 192.5,266.5C 192.5,267.5 192.5,268.5 192.5,269.5C 193.552,269.351 194.552,269.517 195.5,270C 201.562,275.983 206.229,282.817 209.5,290.5C 205.863,286.017 202.363,281.35 199,276.5C 193.167,273.333 188.667,268.833 185.5,263C 181.318,261.077 177.318,258.911 173.5,256.5C 167.654,252.743 161.654,249.243 155.5,246C 152.621,245.454 149.954,244.621 147.5,243.5 Z"/></g>
<g><path style="opacity:1" fill="#7bd5bc" d="M 412.5,305.5 C 418.419,297.34 424.585,289.34 431,281.5C 432.068,277.271 434.068,273.604 437,270.5C 437.839,265.773 438.839,261.106 440,256.5C 440.789,252.909 440.622,249.409 439.5,246C 434.838,243.005 429.838,241.005 424.5,240C 412.193,238.616 399.86,238.283 387.5,239C 377.39,241.773 367.057,243.773 356.5,245C 354.152,248.355 350.818,250.022 346.5,250C 345.614,251.615 344.614,253.115 343.5,254.5C 342.127,254.343 340.793,254.51 339.5,255C 337.424,257.584 334.757,259.251 331.5,260C 328.077,264.096 324.077,267.429 319.5,270C 313.584,277.07 307.584,283.904 301.5,290.5C 301.726,285.416 304.226,281.749 309,279.5C 313.242,274.932 317.075,270.099 320.5,265C 323.276,263.209 325.943,261.376 328.5,259.5C 328.421,258.07 328.754,256.736 329.5,255.5C 332.304,253.899 335.304,252.899 338.5,252.5C 338.137,250.089 339.137,248.589 341.5,248C 344.146,247.503 346.813,247.336 349.5,247.5C 349.286,245.856 349.62,244.356 350.5,243C 353.882,242.824 357.215,242.324 360.5,241.5C 361.145,239.568 362.479,238.401 364.5,238C 371.833,237.667 379.167,237.333 386.5,237C 395.963,232.84 405.296,232.674 414.5,236.5C 422.173,237.292 429.839,238.125 437.5,239C 439.067,241.741 441.401,242.908 444.5,242.5C 444.666,250.174 444.5,257.841 444,265.5C 443.3,267.032 442.134,268.032 440.5,268.5C 439.679,271.447 439.179,274.447 439,277.5C 437.89,279.037 436.39,279.703 434.5,279.5C 434.196,282.522 433.696,285.522 433,288.5C 429.537,290.301 426.37,292.468 423.5,295C 422.74,296.441 422.074,297.941 421.5,299.5C 420.311,300.429 418.978,300.762 417.5,300.5C 418.167,304.5 416.5,306.167 412.5,305.5 Z"/></g>
<g><path style="opacity:1" fill="#e6f7f2" d="M 435.5,246.5 C 424.292,246.011 413.126,245.011 402,243.5C 391.084,244.68 380.251,246.347 369.5,248.5C 369.023,249.478 368.357,250.311 367.5,251C 364.167,251.333 360.833,251.667 357.5,252C 355.395,253.193 353.728,254.86 352.5,257C 348.033,256.61 344.699,258.276 342.5,262C 338.5,264.333 334.5,266.667 330.5,269C 327.651,272.237 324.651,275.237 321.5,278C 319.975,279.009 318.308,279.509 316.5,279.5C 318.571,278.109 320.238,276.276 321.5,274C 322.5,273.667 323.5,273.333 324.5,273C 326.283,269.054 328.949,265.887 332.5,263.5C 335.899,260.094 339.565,257.094 343.5,254.5C 349.255,252.456 354.588,249.623 359.5,246C 368.313,244.625 376.98,242.958 385.5,241C 397.167,240.333 408.833,240.333 420.5,241C 425.714,242.568 430.714,244.401 435.5,246.5 Z"/></g>
<g><path style="opacity:1" fill="#ade5d5" d="M 297.5,246.5 C 295.588,251.058 293.755,255.724 292,260.5C 289.03,266.103 285.697,271.436 282,276.5C 274.909,283.921 267.409,291.087 259.5,298C 256.833,298.667 254.167,298.667 251.5,298C 246.723,294.227 242.223,290.06 238,285.5C 237.011,283.03 235.845,280.697 234.5,278.5C 238.976,282.941 243.643,287.275 248.5,291.5C 251.283,293.659 254.449,294.992 258,295.5C 262.067,292.681 266.067,289.681 270,286.5C 270.333,285.167 270.667,283.833 271,282.5C 274,279.833 277,277.167 280,274.5C 280.494,272.866 280.66,271.199 280.5,269.5C 284.46,267.366 286.627,264.032 287,259.5C 288.011,258.663 289.178,258.33 290.5,258.5C 292.462,254.277 294.795,250.277 297.5,246.5 Z"/></g>
<g><path style="opacity:1" fill="#a2e1cf" d="M 343.5,254.5 C 339.565,257.094 335.899,260.094 332.5,263.5C 326.626,265.87 322.126,269.87 319,275.5C 313.319,279.517 308.319,284.184 304,289.5C 302.238,294.036 299.738,298.036 296.5,301.5C 296.851,297.137 298.518,293.47 301.5,290.5C 307.584,283.904 313.584,277.07 319.5,270C 324.077,267.429 328.077,264.096 331.5,260C 334.757,259.251 337.424,257.584 339.5,255C 340.793,254.51 342.127,254.343 343.5,254.5 Z"/></g>
<g><path style="opacity:1" fill="#e0f5ef" d="M 40.5,219.5 C 39.9917,224.543 39.1584,229.543 38,234.5C 36.71,255.962 37.71,277.295 41,298.5C 41.2784,299.416 41.7784,300.082 42.5,300.5C 43.0787,303.331 44.412,305.664 46.5,307.5C 45.9936,315.005 47.327,322.005 50.5,328.5C 49.2058,327.71 48.0391,326.71 47,325.5C 46.2255,321.853 45.5588,318.186 45,314.5C 44,313.167 43,311.833 42,310.5C 40.2822,303.606 39.2822,296.606 39,289.5C 37.4152,288.624 36.4152,287.291 36,285.5C 35.3333,267.5 35.3333,249.5 36,231.5C 36.9052,227.163 38.4052,223.163 40.5,219.5 Z"/></g>
<g><path style="opacity:1" fill="#92ddc8" d="M 467.5,228.5 C 468.663,248.996 468.829,269.663 468,290.5C 464.481,303.331 460.648,315.998 456.5,328.5C 456.275,323.752 456.775,319.085 458,314.5C 458.667,313.833 459.333,313.167 460,312.5C 460.448,304.671 462.448,297.338 466,290.5C 467.287,269.855 467.787,249.188 467.5,228.5 Z"/></g>
<g><path style="opacity:0.726" fill="#d3d3d3" d="M -0.5,286.5 C 0.977822,286.238 2.31116,286.571 3.5,287.5C 6.17381,294.726 5.84048,301.726 2.5,308.5C 2.5,307.5 2.5,306.5 2.5,305.5C 2.5,300.833 2.5,296.167 2.5,291.5C 1.5,291.5 0.5,291.5 -0.5,291.5C -0.5,289.833 -0.5,288.167 -0.5,286.5 Z"/></g>
<g><path style="opacity:0.316" fill="#808080" d="M -0.5,291.5 C 0.5,291.5 1.5,291.5 2.5,291.5C 2.5,296.167 2.5,300.833 2.5,305.5C 1.5,305.5 0.5,305.5 -0.5,305.5C -0.5,300.833 -0.5,296.167 -0.5,291.5 Z"/></g>
<g><path style="opacity:0.291" fill="#828282" d="M 511.5,291.5 C 511.5,295.833 511.5,300.167 511.5,304.5C 510.5,304.5 509.5,304.5 508.5,304.5C 508.5,300.167 508.5,295.833 508.5,291.5C 509.5,291.5 510.5,291.5 511.5,291.5 Z"/></g>
<g><path style="opacity:1" fill="#b4e7d9" d="M 412.5,305.5 C 408.51,309.483 404.177,313.15 399.5,316.5C 391.881,321.606 383.881,326.106 375.5,330C 370.223,330.115 365.223,331.281 360.5,333.5C 360.804,332.85 361.137,332.183 361.5,331.5C 364.576,330.366 367.576,329.366 370.5,328.5C 384.003,323.338 396.503,316.004 408,306.5C 413.102,299.282 418.436,292.282 424,285.5C 424.871,281.074 427.204,277.741 431,275.5C 431.113,273.026 432.113,271.026 434,269.5C 437.448,261.702 437.948,254.036 435.5,246.5C 430.714,244.401 425.714,242.568 420.5,241C 408.833,240.333 397.167,240.333 385.5,241C 376.98,242.958 368.313,244.625 359.5,246C 354.588,249.623 349.255,252.456 343.5,254.5C 344.614,253.115 345.614,251.615 346.5,250C 350.818,250.022 354.152,248.355 356.5,245C 367.057,243.773 377.39,241.773 387.5,239C 399.86,238.283 412.193,238.616 424.5,240C 429.838,241.005 434.838,243.005 439.5,246C 440.622,249.409 440.789,252.909 440,256.5C 438.839,261.106 437.839,265.773 437,270.5C 434.068,273.604 432.068,277.271 431,281.5C 424.585,289.34 418.419,297.34 412.5,305.5 Z"/></g>
<g><path style="opacity:1" fill="#7ed6bd" d="M 299.5,173.5 C 301.305,174.237 302.971,175.237 304.5,176.5C 305.93,197.863 305.764,219.196 304,240.5C 302.989,241.337 301.822,241.67 300.5,241.5C 301.273,246.684 299.773,251.017 296,254.5C 295.449,258.709 293.449,262.042 290,264.5C 289.667,267.167 289.333,269.833 289,272.5C 287.644,273.38 286.144,273.714 284.5,273.5C 284.66,275.199 284.494,276.866 284,278.5C 279.477,284.02 274.644,289.187 269.5,294C 267.655,295.128 265.655,295.628 263.5,295.5C 263.035,299.911 260.535,301.578 256,300.5C 252.518,300.774 250.018,299.441 248.5,296.5C 245.384,295.816 242.384,294.816 239.5,293.5C 235.108,289.063 230.942,284.396 227,279.5C 226.667,277.167 226.333,274.833 226,272.5C 222.613,270.057 221.113,266.724 221.5,262.5C 220.5,262.5 219.5,262.5 218.5,262.5C 218.007,260.194 217.674,257.861 217.5,255.5C 219.948,258.46 221.781,261.793 223,265.5C 226.296,267.625 228.13,270.625 228.5,274.5C 230.784,275.458 232.784,276.792 234.5,278.5C 235.845,280.697 237.011,283.03 238,285.5C 242.223,290.06 246.723,294.227 251.5,298C 254.167,298.667 256.833,298.667 259.5,298C 267.409,291.087 274.909,283.921 282,276.5C 285.697,271.436 289.03,266.103 292,260.5C 293.755,255.724 295.588,251.058 297.5,246.5C 299.63,240.892 301.797,235.225 304,229.5C 304.667,214.833 304.667,200.167 304,185.5C 301.655,181.812 300.155,177.812 299.5,173.5 Z"/></g>
<g><path style="opacity:1" fill="#e7f7f2" d="M 229.5,269.5 C 231.414,270.185 233.414,270.685 235.5,271C 236.38,272.356 236.714,273.856 236.5,275.5C 240.151,275.162 241.817,276.828 241.5,280.5C 244.9,280.731 246.9,282.564 247.5,286C 250.429,287.419 253.263,288.919 256,290.5C 258.761,289.544 261.261,288.044 263.5,286C 267.306,282.194 271.14,278.36 275,274.5C 275.437,271.228 277.27,269.561 280.5,269.5C 280.66,271.199 280.494,272.866 280,274.5C 277,277.167 274,279.833 271,282.5C 270.667,283.833 270.333,285.167 270,286.5C 266.067,289.681 262.067,292.681 258,295.5C 254.449,294.992 251.283,293.659 248.5,291.5C 243.643,287.275 238.976,282.941 234.5,278.5C 234.657,277.127 234.49,275.793 234,274.5C 232.242,272.917 230.742,271.25 229.5,269.5 Z"/></g>
<g><path style="opacity:0.586" fill="#dadada" d="M 511.5,286.5 C 511.5,288.167 511.5,289.833 511.5,291.5C 510.5,291.5 509.5,291.5 508.5,291.5C 508.5,295.833 508.5,300.167 508.5,304.5C 508.5,306.167 508.5,307.833 508.5,309.5C 507.034,308.653 506.2,307.32 506,305.5C 505.333,300.833 505.333,296.167 506,291.5C 506.129,287.882 507.962,286.215 511.5,286.5 Z"/></g>
<g><path style="opacity:1" fill="#beeade" d="M 332.5,263.5 C 328.949,265.887 326.283,269.054 324.5,273C 323.5,273.333 322.5,273.667 321.5,274C 320.238,276.276 318.571,278.109 316.5,279.5C 316.5,280.167 316.5,280.833 316.5,281.5C 314.947,283.385 312.947,284.385 310.5,284.5C 310.657,285.873 310.49,287.207 310,288.5C 308.488,289.257 307.154,290.257 306,291.5C 303.668,295.982 301.168,300.315 298.5,304.5C 297.186,305.313 296.019,306.313 295,307.5C 293.667,312.167 292.333,316.833 291,321.5C 290.242,323.769 290.409,325.936 291.5,328C 295.716,329.204 300.049,329.87 304.5,330C 307.611,332.695 311.277,334.028 315.5,334C 330.521,334.749 345.521,334.583 360.5,333.5C 358.189,335.068 355.522,335.902 352.5,336C 337.466,338.165 322.466,337.998 307.5,335.5C 302.419,332.196 296.753,330.363 290.5,330C 288.477,326.817 287.977,323.317 289,319.5C 289.667,318.833 290.333,318.167 291,317.5C 291.969,311.755 293.803,306.422 296.5,301.5C 299.738,298.036 302.238,294.036 304,289.5C 308.319,284.184 313.319,279.517 319,275.5C 322.126,269.87 326.626,265.87 332.5,263.5 Z"/></g>
<g><path style="opacity:0.045" fill="#404040" d="M 508.5,304.5 C 509.5,304.5 510.5,304.5 511.5,304.5C 511.5,306.833 511.5,309.167 511.5,311.5C 510.5,311.5 509.5,311.5 508.5,311.5C 508.5,310.833 508.5,310.167 508.5,309.5C 508.5,307.833 508.5,306.167 508.5,304.5 Z"/></g>
<g><path style="opacity:0.027" fill="#3b3b3b" d="M -0.5,305.5 C 0.5,305.5 1.5,305.5 2.5,305.5C 2.5,306.5 2.5,307.5 2.5,308.5C 2.5,309.5 2.5,310.5 2.5,311.5C 1.5,311.5 0.5,311.5 -0.5,311.5C -0.5,309.5 -0.5,307.5 -0.5,305.5 Z"/></g>
<g><path style="opacity:1" fill="#e7f7f2" d="M 316.5,281.5 C 314.576,285.27 312.409,288.936 310,292.5C 308.846,293.743 307.512,294.743 306,295.5C 304.009,300.301 301.843,304.968 299.5,309.5C 298.186,310.313 297.019,311.313 296,312.5C 294.75,317.42 294.25,322.42 294.5,327.5C 300.154,328.055 305.82,328.555 311.5,329C 313.455,329.953 315.122,331.287 316.5,333C 328.181,333.833 339.848,333.666 351.5,332.5C 352.09,331.201 353.09,330.368 354.5,330C 359.822,329.316 365.156,328.816 370.5,328.5C 367.576,329.366 364.576,330.366 361.5,331.5C 361.137,332.183 360.804,332.85 360.5,333.5C 345.521,334.583 330.521,334.749 315.5,334C 311.277,334.028 307.611,332.695 304.5,330C 300.049,329.87 295.716,329.204 291.5,328C 290.409,325.936 290.242,323.769 291,321.5C 292.333,316.833 293.667,312.167 295,307.5C 296.019,306.313 297.186,305.313 298.5,304.5C 301.168,300.315 303.668,295.982 306,291.5C 307.154,290.257 308.488,289.257 310,288.5C 310.49,287.207 310.657,285.873 310.5,284.5C 312.947,284.385 314.947,283.385 316.5,281.5 Z"/></g>
<g><path style="opacity:1" fill="#b2e6d8" d="M 93.5,300.5 C 94.766,301.09 96.0993,301.59 97.5,302C 102.473,306.973 107.473,311.973 112.5,317C 115.79,317.253 118.79,318.253 121.5,320C 122.305,321.113 122.972,322.279 123.5,323.5C 127.173,325.842 130.839,328.176 134.5,330.5C 129.244,328.549 123.91,326.549 118.5,324.5C 117.772,322.807 116.772,321.307 115.5,320C 112.5,318.333 109.5,316.667 106.5,315C 101.566,310.574 97.233,305.74 93.5,300.5 Z"/></g>
<g><path style="opacity:0.237" fill="#c0c0c0" d="M 2.5,318.5 C 5.07917,318.083 7.24583,318.75 9,320.5C 9.1872,324.353 8.6872,328.02 7.5,331.5C 7.5,330.167 7.5,328.833 7.5,327.5C 7.5,325.5 7.5,323.5 7.5,321.5C 5.83333,321.5 4.16667,321.5 2.5,321.5C 2.5,320.5 2.5,319.5 2.5,318.5 Z"/></g>
<g><path style="opacity:0.196" fill="#757575" d="M 2.5,321.5 C 4.16667,321.5 5.83333,321.5 7.5,321.5C 7.5,323.5 7.5,325.5 7.5,327.5C 5.70848,327.366 4.04181,327.699 2.5,328.5C 2.5,326.167 2.5,323.833 2.5,321.5 Z"/></g>
<g><path style="opacity:0.067" fill="#787878" d="M 508.5,321.5 C 508.5,322.833 508.5,324.167 508.5,325.5C 506.958,326.301 505.292,326.634 503.5,326.5C 503.5,324.833 503.5,323.167 503.5,321.5C 505.167,321.5 506.833,321.5 508.5,321.5 Z"/></g>
<g><path style="opacity:0.039" fill="#3d3d3d" d="M 508.5,325.5 C 508.662,327.527 508.495,329.527 508,331.5C 506.644,332.38 505.144,332.714 503.5,332.5C 503.5,330.5 503.5,328.5 503.5,326.5C 505.292,326.634 506.958,326.301 508.5,325.5 Z"/></g>
<g><path style="opacity:0.031" fill="#373737" d="M 7.5,327.5 C 7.5,328.833 7.5,330.167 7.5,331.5C 7.5,331.833 7.5,332.167 7.5,332.5C 4.05044,333.244 2.38377,331.91 2.5,328.5C 4.04181,327.699 5.70848,327.366 7.5,327.5 Z"/></g>
<g><path style="opacity:1" fill="#c9ede3" d="M 173.5,256.5 C 177.318,258.911 181.318,261.077 185.5,263C 188.667,268.833 193.167,273.333 199,276.5C 202.363,281.35 205.863,286.017 209.5,290.5C 211.543,294.419 214.043,298.086 217,301.5C 219.296,306.914 221.463,312.248 223.5,317.5C 223.572,320.193 223.905,322.86 224.5,325.5C 224.61,327.374 223.944,328.874 222.5,330C 212.056,333.613 201.389,336.613 190.5,339C 181.5,339.667 172.5,339.667 163.5,339C 156.984,337.071 150.317,335.738 143.5,335C 140.387,333.583 137.387,332.083 134.5,330.5C 130.839,328.176 127.173,325.842 123.5,323.5C 128.039,324.009 132.039,325.676 135.5,328.5C 140.733,328.553 145.399,330.053 149.5,333C 169.167,333.667 188.833,333.667 208.5,333C 212.515,329.659 217.182,328.159 222.5,328.5C 222.79,324.064 222.29,319.73 221,315.5C 219.667,314.833 218.667,313.833 218,312.5C 217.587,309.768 216.92,307.101 216,304.5C 213.387,301.676 211.721,298.342 211,294.5C 206.281,290.447 202.281,285.781 199,280.5C 195.5,278.333 192.667,275.5 190.5,272C 183.335,268.329 177.668,263.162 173.5,256.5 Z"/></g>
<g><path style="opacity:0.105" fill="#b2b2b2" d="M 503.5,336.5 C 503.5,338.5 503.5,340.5 503.5,342.5C 501.5,342.5 499.5,342.5 497.5,342.5C 497.5,343.5 497.5,344.5 497.5,345.5C 496.366,343.034 496.199,340.367 497,337.5C 499.041,336.577 501.208,336.244 503.5,336.5 Z"/></g>
<g><path style="opacity:1" fill="#8cdac4" d="M 296.5,301.5 C 293.803,306.422 291.969,311.755 291,317.5C 290.333,318.167 289.667,318.833 289,319.5C 287.977,323.317 288.477,326.817 290.5,330C 296.753,330.363 302.419,332.196 307.5,335.5C 322.466,337.998 337.466,338.165 352.5,336C 355.522,335.902 358.189,335.068 360.5,333.5C 365.223,331.281 370.223,330.115 375.5,330C 383.881,326.106 391.881,321.606 399.5,316.5C 399.586,317.496 399.252,318.329 398.5,319C 392.725,322.439 386.725,325.439 380.5,328C 379.953,328.925 379.287,329.758 378.5,330.5C 374.65,331.982 370.65,332.816 366.5,333C 365.833,334.333 364.833,335.333 363.5,336C 355.176,336.36 347.176,338.027 339.5,341C 334.167,341.667 328.833,341.667 323.5,341C 321.382,340.74 319.716,339.74 318.5,338C 311.809,337.831 305.142,337.331 298.5,336.5C 296.851,333.261 294.184,331.761 290.5,332C 289.667,331.167 288.833,330.333 288,329.5C 287.333,325.167 287.333,320.833 288,316.5C 290.426,313.239 292.093,309.573 293,305.5C 294.405,304.269 295.571,302.936 296.5,301.5 Z"/></g>
<g><path style="opacity:0.055" fill="#9f9f9f" d="M 7.5,337.5 C 9.5,337.5 11.5,337.5 13.5,337.5C 13.815,341.371 13.4816,345.038 12.5,348.5C 10.8561,348.714 9.35613,348.38 8,347.5C 7.50166,344.183 7.33499,340.85 7.5,337.5 Z"/></g>
<g><path style="opacity:0.035" fill="#4d4d4d" d="M 503.5,342.5 C 504.575,346.938 502.908,348.938 498.5,348.5C 497.89,347.609 497.557,346.609 497.5,345.5C 497.5,344.5 497.5,343.5 497.5,342.5C 499.5,342.5 501.5,342.5 503.5,342.5 Z"/></g>
<g><path style="opacity:0.099" fill="#7e7e7e" d="M 12.5,353.5 C 14.5,353.5 16.5,353.5 18.5,353.5C 18.5,355.5 18.5,357.5 18.5,359.5C 13.5,360.5 11.5,358.5 12.5,353.5 Z"/></g>
<g><path style="opacity:0.099" fill="#808080" d="M 498.5,353.5 C 499.5,358.5 497.5,360.5 492.5,359.5C 492.5,357.5 492.5,355.5 492.5,353.5C 494.5,353.5 496.5,353.5 498.5,353.5 Z"/></g>
<g><path style="opacity:1" fill="#dff5ef" d="M 50.5,332.5 C 51.8676,334.564 52.8676,336.898 53.5,339.5C 56.6071,341.188 58.2738,343.855 58.5,347.5C 61.8505,349.494 63.3505,352.494 63,356.5C 63.9533,358.455 65.2866,360.122 67,361.5C 67.3333,363.167 67.6667,364.833 68,366.5C 70.9004,371.058 74.0671,375.391 77.5,379.5C 73.8136,378.645 71.6469,376.312 71,372.5C 67.9225,370.806 66.4225,368.139 66.5,364.5C 65.1779,364.67 64.0113,364.337 63,363.5C 59.2576,357.509 56.7576,351.009 55.5,344C 51.963,341.068 50.2963,337.235 50.5,332.5 Z"/></g>
<g><path style="opacity:0.218" fill="#bababa" d="M 492.5,364.5 C 492.5,366.167 492.5,367.833 492.5,369.5C 490.833,369.5 489.167,369.5 487.5,369.5C 487.5,371.167 487.5,372.833 487.5,374.5C 487.5,374.833 487.5,375.167 487.5,375.5C 487.784,377.415 487.451,379.081 486.5,380.5C 485.833,380.5 485.167,380.5 484.5,380.5C 483.5,380.5 482.5,380.5 481.5,380.5C 481.5,378.5 481.5,376.5 481.5,374.5C 483.167,374.5 484.833,374.5 486.5,374.5C 486.5,371.167 486.5,367.833 486.5,364.5C 488.5,364.5 490.5,364.5 492.5,364.5 Z"/></g>
<g><path style="opacity:0.005" fill="#000000" d="M 18.5,370.5 C 20.1667,371.833 21.8333,373.167 23.5,374.5C 23.5,374.833 23.5,375.167 23.5,375.5C 20.2033,375.368 18.5367,373.702 18.5,370.5 Z"/></g>
<g><path style="opacity:0.005" fill="#000000" d="M 492.5,370.5 C 492.463,373.702 490.797,375.368 487.5,375.5C 487.5,375.167 487.5,374.833 487.5,374.5C 489.167,373.167 490.833,371.833 492.5,370.5 Z"/></g>
<g><path style="opacity:0.016" fill="#515151" d="M 18.5,370.5 C 18.5,370.167 18.5,369.833 18.5,369.5C 20.1667,369.5 21.8333,369.5 23.5,369.5C 23.5,371.167 23.5,372.833 23.5,374.5C 21.8333,373.167 20.1667,371.833 18.5,370.5 Z"/></g>
<g><path style="opacity:0.016" fill="#505050" d="M 492.5,369.5 C 492.5,369.833 492.5,370.167 492.5,370.5C 490.833,371.833 489.167,373.167 487.5,374.5C 487.5,372.833 487.5,371.167 487.5,369.5C 489.167,369.5 490.833,369.5 492.5,369.5 Z"/></g>
<g><path style="opacity:0.29" fill="#c2c2c2" d="M 18.5,364.5 C 20.5,364.5 22.5,364.5 24.5,364.5C 24.5,367.833 24.5,371.167 24.5,374.5C 26.1667,374.5 27.8333,374.5 29.5,374.5C 29.5,376.5 29.5,378.5 29.5,380.5C 27.8863,378.925 25.8863,378.259 23.5,378.5C 23.5,377.5 23.5,376.5 23.5,375.5C 23.5,375.167 23.5,374.833 23.5,374.5C 23.5,372.833 23.5,371.167 23.5,369.5C 21.8333,369.5 20.1667,369.5 18.5,369.5C 18.5,367.833 18.5,366.167 18.5,364.5 Z"/></g>
<g><path style="opacity:0.005" fill="#000000" d="M 24.5,380.5 C 26.929,381.265 28.2623,382.931 28.5,385.5C 25.7026,385.033 24.3692,383.367 24.5,380.5 Z"/></g>
<g><path style="opacity:0.005" fill="#000000" d="M 484.5,380.5 C 485.167,380.5 485.833,380.5 486.5,380.5C 486.631,383.367 485.297,385.033 482.5,385.5C 482.831,383.678 483.498,382.011 484.5,380.5 Z"/></g>
<g><path style="opacity:0.318" fill="#9a9a9a" d="M 23.5,378.5 C 25.8863,378.259 27.8863,378.925 29.5,380.5C 29.5,381.833 29.5,383.167 29.5,384.5C 31.1667,384.5 32.8333,384.5 34.5,384.5C 34.5,386.833 34.5,389.167 34.5,391.5C 29.5,392.5 27.5,390.5 28.5,385.5C 28.2623,382.931 26.929,381.265 24.5,380.5C 23.6618,380.158 23.3284,379.492 23.5,378.5 Z"/></g>
<g><path style="opacity:0.094" fill="#787878" d="M 481.5,380.5 C 482.5,380.5 483.5,380.5 484.5,380.5C 483.498,382.011 482.831,383.678 482.5,385.5C 483.5,390.5 481.5,392.5 476.5,391.5C 476.5,389.5 476.5,387.5 476.5,385.5C 478.167,385.5 479.833,385.5 481.5,385.5C 481.5,383.833 481.5,382.167 481.5,380.5 Z"/></g>
<g><path style="opacity:1" fill="#83d8c0" d="M 70.5,362.5 C 71.9997,364.179 73.833,365.512 76,366.5C 76.49,367.793 76.6567,369.127 76.5,370.5C 77.8221,370.33 78.9887,370.663 80,371.5C 83.0645,376.449 85.5645,381.783 87.5,387.5C 90.3261,389.787 93.1594,392.12 96,394.5C 96.6567,397.685 98.6567,399.352 102,399.5C 103.667,402.5 105.333,405.5 107,408.5C 110.154,410.741 113.32,413.075 116.5,415.5C 117.429,416.689 117.762,418.022 117.5,419.5C 119.527,419.338 121.527,419.505 123.5,420C 124.337,421.011 124.67,422.178 124.5,423.5C 126.591,423.318 128.591,423.652 130.5,424.5C 131.648,426.149 132.981,427.649 134.5,429C 138.126,429.278 140.126,431.112 140.5,434.5C 145.301,433.812 148.634,435.645 150.5,440C 154.167,440.169 156.5,442.003 157.5,445.5C 154.048,442.832 150.048,440.999 145.5,440C 141.587,437.092 137.92,433.925 134.5,430.5C 132.556,429.811 130.556,429.311 128.5,429C 125.017,427.008 121.684,424.842 118.5,422.5C 117.306,421.728 116.306,420.728 115.5,419.5C 101.145,405.974 87.9783,391.307 76,375.5C 76.0468,371.717 74.5468,368.717 71.5,366.5C 70.5713,365.311 70.238,363.978 70.5,362.5 Z"/></g>
<g><path style="opacity:0.042" fill="#3a3a3a" d="M 34.5,396.5 C 36.1667,396.5 37.8333,396.5 39.5,396.5C 39.5,398.5 39.5,400.5 39.5,402.5C 37.9582,401.699 36.2915,401.366 34.5,401.5C 34.5,399.833 34.5,398.167 34.5,396.5 Z"/></g>
<g><path style="opacity:0.042" fill="#3c3c3c" d="M 476.5,396.5 C 476.5,398.167 476.5,399.833 476.5,401.5C 474.708,401.366 473.042,401.699 471.5,402.5C 471.5,400.5 471.5,398.5 471.5,396.5C 473.167,396.5 474.833,396.5 476.5,396.5 Z"/></g>
<g><path style="opacity:0.129" fill="#c8c8c8" d="M 44.5,407.5 C 42.8333,407.5 41.1667,407.5 39.5,407.5C 39.5,405.833 39.5,404.167 39.5,402.5C 39.5,400.5 39.5,398.5 39.5,396.5C 37.8333,396.5 36.1667,396.5 34.5,396.5C 34.5,396.167 34.5,395.833 34.5,395.5C 36.6702,394.232 38.8368,394.232 41,395.5C 41.1968,397.861 42.3635,399.528 44.5,400.5C 45.7969,402.973 45.7969,405.307 44.5,407.5 Z"/></g>
<g><path style="opacity:1" fill="#b9e9dc" d="M 46.5,307.5 C 47.871,311.655 49.0376,315.988 50,320.5C 50.6667,321.833 51.6667,322.833 53,323.5C 53.1981,325.382 53.6981,327.048 54.5,328.5C 56.5407,333.627 58.2074,338.961 59.5,344.5C 63.1707,348 65.004,352.333 65,357.5C 66.8119,359.3 68.6452,360.967 70.5,362.5C 70.238,363.978 70.5713,365.311 71.5,366.5C 74.5468,368.717 76.0468,371.717 76,375.5C 87.9783,391.307 101.145,405.974 115.5,419.5C 113.938,419.267 112.605,418.6 111.5,417.5C 108.865,416.167 106.531,414.333 104.5,412C 100.541,412.209 98.8742,410.375 99.5,406.5C 98.0222,406.762 96.6888,406.429 95.5,405.5C 93.9699,402.813 91.8032,400.813 89,399.5C 86.9031,396.933 85.5698,393.933 85,390.5C 82.6667,388.167 80.3333,385.833 78,383.5C 77.51,382.207 77.3433,380.873 77.5,379.5C 74.0671,375.391 70.9004,371.058 68,366.5C 67.6667,364.833 67.3333,363.167 67,361.5C 65.2866,360.122 63.9533,358.455 63,356.5C 63.3505,352.494 61.8505,349.494 58.5,347.5C 58.2738,343.855 56.6071,341.188 53.5,339.5C 52.8676,336.898 51.8676,334.564 50.5,332.5C 50.5,331.167 50.5,329.833 50.5,328.5C 47.327,322.005 45.9936,315.005 46.5,307.5 Z"/></g>
<g><path style="opacity:1" fill="#e3f6f1" d="M 454.5,342.5 C 455.476,347.225 453.976,350.892 450,353.5C 448.957,356.757 448.457,360.09 448.5,363.5C 447.178,363.33 446.011,363.663 445,364.5C 444.982,368.071 443.315,370.404 440,371.5C 438.49,374.514 436.49,377.181 434,379.5C 433.667,381.5 433.333,383.5 433,385.5C 430.219,387.954 428.219,390.954 427,394.5C 425.667,395.167 424.333,395.833 423,396.5C 423.209,400.459 421.375,402.126 417.5,401.5C 418.167,405.5 416.5,407.167 412.5,406.5C 412.762,407.978 412.429,409.311 411.5,410.5C 407.746,410.754 405.912,412.754 406,416.5C 404.644,417.38 403.144,417.714 401.5,417.5C 402.126,421.375 400.459,423.209 396.5,423C 395.956,426.376 393.956,428.21 390.5,428.5C 389.618,429.76 388.618,430.926 387.5,432C 381.657,433.512 375.991,435.512 370.5,438C 369.87,439.892 368.87,441.559 367.5,443C 363.375,444.325 359.375,445.825 355.5,447.5C 357.951,444.218 361.284,442.218 365.5,441.5C 366.648,439.851 367.981,438.351 369.5,437C 378.092,434.206 385.092,429.206 390.5,422C 391.833,421.667 393.167,421.333 394.5,421C 401.36,414.14 408.194,407.306 415,400.5C 417.948,395.553 421.615,391.219 426,387.5C 426.219,386.062 426.719,384.729 427.5,383.5C 435.305,377.543 440.472,369.876 443,360.5C 447.491,354.752 451.324,348.752 454.5,342.5 Z"/></g>
<g><path style="opacity:0.035" fill="#383838" d="M 465.5,412.5 C 465.5,414.167 465.5,415.833 465.5,417.5C 463.833,417.5 462.167,417.5 460.5,417.5C 460.5,415.833 460.5,414.167 460.5,412.5C 462.167,412.5 463.833,412.5 465.5,412.5 Z"/></g>
<g><path style="opacity:0.016" fill="#373737" d="M 45.5,412.5 C 47.1667,412.5 48.8333,412.5 50.5,412.5C 50.5,414.167 50.5,415.833 50.5,417.5C 48.8333,417.5 47.1667,417.5 45.5,417.5C 45.5,415.833 45.5,414.167 45.5,412.5 Z"/></g>
<g><path style="opacity:0.075" fill="#424242" d="M 50.5,417.5 C 52.1667,417.5 53.8333,417.5 55.5,417.5C 55.5,419.5 55.5,421.5 55.5,423.5C 51.0917,423.938 49.4251,421.938 50.5,417.5 Z"/></g>
<g><path style="opacity:0.075" fill="#414141" d="M 460.5,417.5 C 461.575,421.938 459.908,423.938 455.5,423.5C 455.5,421.5 455.5,419.5 455.5,417.5C 457.167,417.5 458.833,417.5 460.5,417.5 Z"/></g>
<g><path style="opacity:1" fill="#7fd7be" d="M 413.5,397.5 C 411.794,399.073 410.627,401.073 410,403.5C 399.875,411.956 390.042,420.789 380.5,430C 372.572,433.986 364.572,437.986 356.5,442C 354.963,443.11 354.297,444.61 354.5,446.5C 352.146,446.838 349.813,447.338 347.5,448C 341.532,451.767 335.199,454.767 328.5,457C 325.833,457.333 323.167,457.667 320.5,458C 318.112,459.861 315.446,461.194 312.5,462C 305.18,462.581 298.18,464.247 291.5,467C 266.836,468.652 242.169,468.818 217.5,467.5C 217.167,467.5 216.833,467.5 216.5,467.5C 215.942,466.21 214.942,465.377 213.5,465C 201.514,463.419 189.847,460.752 178.5,457C 176.959,455.629 175.625,454.129 174.5,452.5C 176.697,453.845 179.03,455.011 181.5,456C 187.671,456.162 193.337,457.829 198.5,461C 205.208,461.289 211.875,461.955 218.5,463C 219.833,463.667 220.833,464.667 221.5,466C 244.5,466.667 267.5,466.667 290.5,466C 294.982,463.514 299.315,460.847 303.5,458C 310.729,456.346 318.063,455.346 325.5,455C 329.012,451.382 333.345,449.715 338.5,450C 341.435,446.1 345.435,444.6 350.5,445.5C 350.833,443.5 351.167,441.5 351.5,439.5C 354.5,439.5 357.5,439.5 360.5,439.5C 360.33,438.178 360.663,437.011 361.5,436C 363.167,435.667 364.833,435.333 366.5,435C 368.869,431.774 371.869,429.608 375.5,428.5C 375.297,426.61 375.963,425.11 377.5,424C 380.933,423.43 383.933,422.097 386.5,420C 389.77,415.726 393.436,411.726 397.5,408C 399.134,407.506 400.801,407.34 402.5,407.5C 402.651,403.686 404.651,402.019 408.5,402.5C 407.833,398.5 409.5,396.833 413.5,397.5 Z"/></g>
<g><path style="opacity:0.447" fill="#cdcdcd" d="M 465.5,412.5 C 463.833,412.5 462.167,412.5 460.5,412.5C 460.5,414.167 460.5,415.833 460.5,417.5C 458.833,417.5 457.167,417.5 455.5,417.5C 455.5,419.5 455.5,421.5 455.5,423.5C 455.5,425.167 455.5,426.833 455.5,428.5C 453.833,428.5 452.167,428.5 450.5,428.5C 451.5,433.5 449.5,435.5 444.5,434.5C 444.5,436.167 444.5,437.833 444.5,439.5C 442.833,439.5 441.167,439.5 439.5,439.5C 439.5,441.167 439.5,442.833 439.5,444.5C 437.833,444.5 436.167,444.5 434.5,444.5C 435.5,449.5 433.5,451.5 428.5,450.5C 428.5,452.167 428.5,453.833 428.5,455.5C 426.833,455.5 425.167,455.5 423.5,455.5C 421.5,455.5 419.5,455.5 417.5,455.5C 417.5,457.167 417.5,458.833 417.5,460.5C 415.833,460.5 414.167,460.5 412.5,460.5C 413.749,458.33 414.749,455.996 415.5,453.5C 419.1,451.891 422.433,449.891 425.5,447.5C 426.429,446.311 426.762,444.978 426.5,443.5C 430.938,444.575 432.938,442.908 432.5,438.5C 437.5,439.5 439.5,437.5 438.5,432.5C 440.144,432.714 441.644,432.38 443,431.5C 442.666,427.895 444.166,425.561 447.5,424.5C 450.684,419.473 454.35,414.806 458.5,410.5C 460.743,409.526 463.076,409.192 465.5,409.5C 465.5,410.5 465.5,411.5 465.5,412.5 Z"/></g>
<g><path style="opacity:1" fill="#ace5d5" d="M 463.5,201.5 C 464.834,204.373 466.167,207.373 467.5,210.5C 470.92,238.093 471.42,265.759 469,293.5C 468.369,298.716 467.203,303.716 465.5,308.5C 465.423,312.877 464.923,317.21 464,321.5C 460.961,325.613 459.294,330.279 459,335.5C 457.25,337.734 455.75,340.068 454.5,342.5C 451.324,348.752 447.491,354.752 443,360.5C 440.472,369.876 435.305,377.543 427.5,383.5C 426.719,384.729 426.219,386.062 426,387.5C 421.615,391.219 417.948,395.553 415,400.5C 408.194,407.306 401.36,414.14 394.5,421C 393.167,421.333 391.833,421.667 390.5,422C 385.092,429.206 378.092,434.206 369.5,437C 367.981,438.351 366.648,439.851 365.5,441.5C 361.284,442.218 357.951,444.218 355.5,447.5C 354.391,447.557 353.391,447.89 352.5,448.5C 351.127,448.343 349.793,448.51 348.5,449C 343.5,452 338.5,455 333.5,458C 320.085,461.187 306.752,464.687 293.5,468.5C 270.841,469.666 248.174,469.833 225.5,469C 222.635,468.817 219.969,468.317 217.5,467.5C 242.169,468.818 266.836,468.652 291.5,467C 298.18,464.247 305.18,462.581 312.5,462C 315.446,461.194 318.112,459.861 320.5,458C 323.167,457.667 325.833,457.333 328.5,457C 335.199,454.767 341.532,451.767 347.5,448C 349.813,447.338 352.146,446.838 354.5,446.5C 354.297,444.61 354.963,443.11 356.5,442C 364.572,437.986 372.572,433.986 380.5,430C 390.042,420.789 399.875,411.956 410,403.5C 410.627,401.073 411.794,399.073 413.5,397.5C 417.888,390.583 423.388,384.25 430,378.5C 430.333,376.5 430.667,374.5 431,372.5C 433.892,369.729 436.558,366.729 439,363.5C 440.949,355.405 444.783,348.405 450.5,342.5C 452.319,337.693 454.319,333.026 456.5,328.5C 460.648,315.998 464.481,303.331 468,290.5C 468.829,269.663 468.663,248.996 467.5,228.5C 467.5,227.167 467.5,225.833 467.5,224.5C 467.665,221.15 467.498,217.817 467,214.5C 464.505,210.515 463.338,206.182 463.5,201.5 Z"/></g>
<g><path style="opacity:0.102" fill="#c0c0c0" d="M 55.5,417.5 C 57.256,418.552 57.9227,420.219 57.5,422.5C 58.8333,422.5 60.1667,422.5 61.5,422.5C 61.3433,423.873 61.51,425.207 62,426.5C 66.1094,426.471 67.9427,428.471 67.5,432.5C 71.9083,432.062 73.5749,434.062 72.5,438.5C 74.5,438.5 76.5,438.5 78.5,438.5C 77.9079,442.074 79.4079,444.074 83,444.5C 82.7913,448.459 84.6246,450.126 88.5,449.5C 88.5,450.833 88.5,452.167 88.5,453.5C 90.1992,453.34 91.8659,453.506 93.5,454C 94.129,456.375 95.129,458.541 96.5,460.5C 95.5,460.5 94.5,460.5 93.5,460.5C 93.5,458.833 93.5,457.167 93.5,455.5C 91.5,455.5 89.5,455.5 87.5,455.5C 85.8333,455.5 84.1667,455.5 82.5,455.5C 82.5,453.833 82.5,452.167 82.5,450.5C 77.5,451.5 75.5,449.5 76.5,444.5C 74.8333,444.5 73.1667,444.5 71.5,444.5C 71.5,442.833 71.5,441.167 71.5,439.5C 69.8333,439.5 68.1667,439.5 66.5,439.5C 66.5,437.833 66.5,436.167 66.5,434.5C 61.5,435.5 59.5,433.5 60.5,428.5C 58.8333,428.5 57.1667,428.5 55.5,428.5C 55.5,426.833 55.5,425.167 55.5,423.5C 55.5,421.5 55.5,419.5 55.5,417.5 Z"/></g>
<g><path style="opacity:1" fill="#afe5d6" d="M 118.5,422.5 C 121.684,424.842 125.017,427.008 128.5,429C 130.556,429.311 132.556,429.811 134.5,430.5C 137.92,433.925 141.587,437.092 145.5,440C 150.048,440.999 154.048,442.832 157.5,445.5C 162.962,448.286 168.628,450.619 174.5,452.5C 175.625,454.129 176.959,455.629 178.5,457C 189.847,460.752 201.514,463.419 213.5,465C 214.942,465.377 215.942,466.21 216.5,467.5C 207.628,465.355 198.628,463.855 189.5,463C 187.33,461.414 184.996,460.08 182.5,459C 167.796,454.936 154.463,448.269 142.5,439C 140.5,438.333 138.5,437.667 136.5,437C 130.182,432.487 124.182,427.653 118.5,422.5 Z"/></g>
<g><path style="opacity:0.075" fill="#464646" d="M 87.5,455.5 C 89.5,455.5 91.5,455.5 93.5,455.5C 93.5,457.167 93.5,458.833 93.5,460.5C 89.062,461.575 87.062,459.908 87.5,455.5 Z"/></g>
<g><path style="opacity:0.042" fill="#444444" d="M 423.5,455.5 C 423.938,459.908 421.938,461.575 417.5,460.5C 417.5,458.833 417.5,457.167 417.5,455.5C 419.5,455.5 421.5,455.5 423.5,455.5 Z"/></g>
<g><path style="opacity:0.035" fill="#383838" d="M 412.5,460.5 C 414.167,460.5 415.833,460.5 417.5,460.5C 417.5,462.167 417.5,463.833 417.5,465.5C 415.833,465.5 414.167,465.5 412.5,465.5C 412.5,463.833 412.5,462.167 412.5,460.5 Z"/></g>
<g><path style="opacity:0.016" fill="#373737" d="M 93.5,460.5 C 94.5,460.5 95.5,460.5 96.5,460.5C 98.256,461.552 98.9227,463.219 98.5,465.5C 96.8333,465.5 95.1667,465.5 93.5,465.5C 93.5,463.833 93.5,462.167 93.5,460.5 Z"/></g>
<g><path style="opacity:0.129" fill="#c9c9c9" d="M 118.5,476.5 C 117.167,476.5 115.833,476.5 114.5,476.5C 114.5,474.833 114.5,473.167 114.5,471.5C 112.5,471.5 110.5,471.5 108.5,471.5C 106.833,471.5 105.167,471.5 103.5,471.5C 103.5,469.833 103.5,468.167 103.5,466.5C 105.265,465.539 107.265,465.205 109.5,465.5C 109.5,467.167 109.5,468.833 109.5,470.5C 115.076,469.006 118.076,471.006 118.5,476.5 Z"/></g>
<g><path style="opacity:0.129" fill="#c2c2c2" d="M 407.5,466.5 C 407.5,468.167 407.5,469.833 407.5,471.5C 405.833,471.5 404.167,471.5 402.5,471.5C 400.5,471.5 398.5,471.5 396.5,471.5C 399.584,470.744 401.251,468.744 401.5,465.5C 403.735,465.205 405.735,465.539 407.5,466.5 Z"/></g>
<g><path style="opacity:0.042" fill="#3d3d3d" d="M 108.5,471.5 C 110.5,471.5 112.5,471.5 114.5,471.5C 114.5,473.167 114.5,474.833 114.5,476.5C 112.833,476.5 111.167,476.5 109.5,476.5C 109.634,474.708 109.301,473.042 108.5,471.5 Z"/></g>
<g><path style="opacity:0.042" fill="#3a3a3a" d="M 396.5,471.5 C 398.5,471.5 400.5,471.5 402.5,471.5C 401.699,473.042 401.366,474.708 401.5,476.5C 399.833,476.5 398.167,476.5 396.5,476.5C 396.5,474.833 396.5,473.167 396.5,471.5 Z"/></g>
<g><path style="opacity:1" fill="#e6f7f2" d="M 111.5,417.5 C 112.605,418.6 113.938,419.267 115.5,419.5C 116.306,420.728 117.306,421.728 118.5,422.5C 124.182,427.653 130.182,432.487 136.5,437C 138.5,437.667 140.5,438.333 142.5,439C 154.463,448.269 167.796,454.936 182.5,459C 184.996,460.08 187.33,461.414 189.5,463C 198.628,463.855 207.628,465.355 216.5,467.5C 216.833,467.5 217.167,467.5 217.5,467.5C 219.969,468.317 222.635,468.817 225.5,469C 248.174,469.833 270.841,469.666 293.5,468.5C 306.752,464.687 320.085,461.187 333.5,458C 338.5,455 343.5,452 348.5,449C 349.793,448.51 351.127,448.343 352.5,448.5C 350.651,452.177 347.651,454.01 343.5,454C 338.055,458.616 331.722,460.949 324.5,461C 323.833,461.667 323.167,462.333 322.5,463C 318.494,464.168 314.494,465.335 310.5,466.5C 309.528,468.636 307.861,469.803 305.5,470C 298.563,471.173 291.563,471.84 284.5,472C 283.284,473.74 281.618,474.74 279.5,475C 262.835,476.968 246.168,476.968 229.5,475C 227.382,474.74 225.716,473.74 224.5,472C 216.657,472.09 208.991,471.09 201.5,469C 200.833,468 200.167,467 199.5,466C 194.5,465.667 189.5,465.333 184.5,465C 182.139,464.803 180.472,463.636 179.5,461.5C 176.553,460.679 173.553,460.179 170.5,460C 168.5,458.333 166.5,456.667 164.5,455C 162.167,454.667 159.833,454.333 157.5,454C 152.725,448.281 146.725,444.615 139.5,443C 138.257,441.846 137.257,440.512 136.5,439C 134.527,438.505 132.527,438.338 130.5,438.5C 130.5,436.833 130.5,435.167 130.5,433.5C 125.081,434.041 121.581,431.707 120,426.5C 117.616,424.115 114.95,422.115 112,420.5C 111.517,419.552 111.351,418.552 111.5,417.5 Z"/></g>
<g><path style="opacity:0.13" fill="#808080" d="M 119.5,476.5 C 119.833,476.5 120.167,476.5 120.5,476.5C 122.167,476.5 123.833,476.5 125.5,476.5C 125.5,478.5 125.5,480.5 125.5,482.5C 120.5,483.5 118.5,481.5 119.5,476.5 Z"/></g>
<g><path style="opacity:0.024" fill="#787878" d="M 385.5,476.5 C 387.5,476.5 389.5,476.5 391.5,476.5C 392.5,481.5 390.5,483.5 385.5,482.5C 385.167,482.5 384.833,482.5 384.5,482.5C 385.341,480.621 385.675,478.621 385.5,476.5 Z"/></g>
<g><path style="opacity:0.005" fill="#000000" d="M 125.5,482.5 C 128.069,482.738 129.735,484.071 130.5,486.5C 127.633,486.631 125.967,485.297 125.5,482.5 Z"/></g>
<g><path style="opacity:0.217" fill="#bbbbbb" d="M 120.5,476.5 C 122.607,475.532 124.941,475.198 127.5,475.5C 127.261,477.467 127.594,479.301 128.5,481C 131.146,481.497 133.813,481.664 136.5,481.5C 136.5,483.167 136.5,484.833 136.5,486.5C 139.833,486.5 143.167,486.5 146.5,486.5C 146.5,488.5 146.5,490.5 146.5,492.5C 144.5,492.5 142.5,492.5 140.5,492.5C 140.389,491.883 140.056,491.383 139.5,491C 140.973,490.29 141.64,489.124 141.5,487.5C 139.5,487.5 137.5,487.5 135.5,487.5C 133.585,487.784 131.919,487.451 130.5,486.5C 129.735,484.071 128.069,482.738 125.5,482.5C 125.5,480.5 125.5,478.5 125.5,476.5C 123.833,476.5 122.167,476.5 120.5,476.5 Z"/></g>
<g><path style="opacity:0.217" fill="#b7b7b7" d="M 385.5,476.5 C 385.675,478.621 385.341,480.621 384.5,482.5C 382.5,483.167 381.167,484.5 380.5,486.5C 379.081,487.451 377.415,487.784 375.5,487.5C 375.167,487.5 374.833,487.5 374.5,487.5C 372.833,487.5 371.167,487.5 369.5,487.5C 369.5,489.167 369.5,490.833 369.5,492.5C 367.833,492.5 366.167,492.5 364.5,492.5C 364.5,490.5 364.5,488.5 364.5,486.5C 367.833,486.5 371.167,486.5 374.5,486.5C 374.5,484.833 374.5,483.167 374.5,481.5C 377.5,481.5 380.5,481.5 383.5,481.5C 383.077,479.219 383.744,477.552 385.5,476.5 Z"/></g>
<g><path style="opacity:0.005" fill="#000000" d="M 384.5,482.5 C 384.833,482.5 385.167,482.5 385.5,482.5C 385.033,485.297 383.367,486.631 380.5,486.5C 381.167,484.5 382.5,483.167 384.5,482.5 Z"/></g>
<g><path style="opacity:0.005" fill="#000000" d="M 374.5,487.5 C 374.833,487.5 375.167,487.5 375.5,487.5C 375.368,490.797 373.702,492.463 370.5,492.5C 371.833,490.833 373.167,489.167 374.5,487.5 Z"/></g>
<g><path style="opacity:0.016" fill="#343434" d="M 135.5,487.5 C 137.5,487.5 139.5,487.5 141.5,487.5C 141.64,489.124 140.973,490.29 139.5,491C 140.056,491.383 140.389,491.883 140.5,492.5C 137.298,492.463 135.632,490.797 135.5,487.5 Z"/></g>
<g><path style="opacity:0.016" fill="#515151" d="M 374.5,487.5 C 373.167,489.167 371.833,490.833 370.5,492.5C 370.167,492.5 369.833,492.5 369.5,492.5C 369.5,490.833 369.5,489.167 369.5,487.5C 371.167,487.5 372.833,487.5 374.5,487.5 Z"/></g>
<g><path style="opacity:0.099" fill="#7e7e7e" d="M 151.5,492.5 C 153.5,492.5 155.5,492.5 157.5,492.5C 157.5,494.5 157.5,496.5 157.5,498.5C 152.5,499.5 150.5,497.5 151.5,492.5 Z"/></g>
<g><path style="opacity:0.099" fill="#7e7e7e" d="M 359.5,492.5 C 360.5,497.5 358.5,499.5 353.5,498.5C 353.5,496.5 353.5,494.5 353.5,492.5C 355.5,492.5 357.5,492.5 359.5,492.5 Z"/></g>
<g><path style="opacity:0.056" fill="#3a3a3a" d="M 348.5,498.5 C 349.244,501.95 347.91,503.616 344.5,503.5C 343.699,501.958 343.366,500.292 343.5,498.5C 345.167,498.5 346.833,498.5 348.5,498.5 Z"/></g>
<g><path style="opacity:0.105" fill="#979797" d="M 348.5,498.5 C 346.833,498.5 345.167,498.5 343.5,498.5C 343.366,500.292 343.699,501.958 344.5,503.5C 342.833,503.5 341.167,503.5 339.5,503.5C 339.5,501.5 339.5,499.5 339.5,497.5C 342.713,497.19 345.713,497.523 348.5,498.5 Z"/></g>
<g><path style="opacity:0.061" fill="#a8a8a8" d="M 173.5,503.5 C 170.15,503.665 166.817,503.498 163.5,503C 162.62,501.644 162.286,500.144 162.5,498.5C 165.962,497.518 169.629,497.185 173.5,497.5C 173.5,499.5 173.5,501.5 173.5,503.5 Z"/></g>
<g><path style="opacity:0.459" fill="#c7c7c7" d="M 192.5,508.5 C 191.5,508.5 190.5,508.5 189.5,508.5C 189.5,506.833 189.5,505.167 189.5,503.5C 187.5,503.5 185.5,503.5 183.5,503.5C 182.167,503.5 180.833,503.5 179.5,503.5C 181.389,502.678 183.389,501.845 185.5,501C 191.334,500.004 193.667,502.504 192.5,508.5 Z"/></g>
<g><path style="opacity:0.02" fill="#3a3a3a" d="M 178.5,503.5 C 178.833,503.5 179.167,503.5 179.5,503.5C 180.833,503.5 182.167,503.5 183.5,503.5C 183.365,505.554 184.032,507.221 185.5,508.5C 183.473,508.662 181.473,508.495 179.5,508C 178.62,506.644 178.286,505.144 178.5,503.5 Z"/></g>
<g><path style="opacity:0.039" fill="#3d3d3d" d="M 328.5,503.5 C 329.833,503.5 331.167,503.5 332.5,503.5C 332.714,505.144 332.38,506.644 331.5,508C 329.527,508.495 327.527,508.662 325.5,508.5C 325.777,506.272 326.777,504.605 328.5,503.5 Z"/></g>
<g><path style="opacity:0.725" fill="#cacaca" d="M 222.5,511.5 C 220.5,511.5 218.5,511.5 216.5,511.5C 216.5,510.5 216.5,509.5 216.5,508.5C 211.833,508.5 207.167,508.5 202.5,508.5C 207.689,505.73 213.355,504.897 219.5,506C 221.671,507.174 222.671,509.007 222.5,511.5 Z"/></g>
<g><path style="opacity:0.055" fill="#797979" d="M 183.5,503.5 C 185.5,503.5 187.5,503.5 189.5,503.5C 189.5,505.167 189.5,506.833 189.5,508.5C 188.167,508.5 186.833,508.5 185.5,508.5C 184.032,507.221 183.365,505.554 183.5,503.5 Z"/></g>
<g><path style="opacity:0.067" fill="#808080" d="M 328.5,503.5 C 326.777,504.605 325.777,506.272 325.5,508.5C 323.833,508.5 322.167,508.5 320.5,508.5C 320.261,506.533 320.594,504.699 321.5,503C 324.039,502.204 326.372,502.371 328.5,503.5 Z"/></g>
<g><path style="opacity:0.291" fill="#6b6b6b" d="M 199.5,508.5 C 200.5,508.5 201.5,508.5 202.5,508.5C 207.167,508.5 211.833,508.5 216.5,508.5C 216.5,509.5 216.5,510.5 216.5,511.5C 210.833,511.5 205.167,511.5 199.5,511.5C 199.5,510.5 199.5,509.5 199.5,508.5 Z"/></g>
<g><path style="opacity:0.291" fill="#858585" d="M 304.5,508.5 C 304.5,509.5 304.5,510.5 304.5,511.5C 299.833,511.5 295.167,511.5 290.5,511.5C 290.5,510.5 290.5,509.5 290.5,508.5C 295.167,508.5 299.833,508.5 304.5,508.5 Z"/></g>
<g><path style="opacity:0.039" fill="#3f3f3f" d="M 304.5,508.5 C 306.833,508.5 309.167,508.5 311.5,508.5C 311.5,509.5 311.5,510.5 311.5,511.5C 309.167,511.5 306.833,511.5 304.5,511.5C 304.5,510.5 304.5,509.5 304.5,508.5 Z"/></g>
</svg>
