<svg xmlns="http://www.w3.org/2000/svg" xmlns:xlink="http://www.w3.org/1999/xlink" width="400" zoomAndPan="magnify" viewBox="0 0 300 74.999997" height="100" preserveAspectRatio="xMidYMid meet" version="1.0"><defs><g/><clipPath id="9c85df176a"><path d="M 4.910156 4.339844 L 70.910156 4.339844 L 70.910156 70.339844 L 4.910156 70.339844 Z M 4.910156 4.339844 " clip-rule="nonzero"/></clipPath><clipPath id="ea98f77649"><path d="M 9.988281 9.40625 L 66.238281 9.40625 L 66.238281 65.65625 L 9.988281 65.65625 Z M 9.988281 9.40625 " clip-rule="nonzero"/></clipPath><clipPath id="32533dcb2c"><path d="M 13.84375 22.167969 L 62.59375 22.167969 L 62.59375 52 L 13.84375 52 Z M 13.84375 22.167969 " clip-rule="nonzero"/></clipPath></defs><g clip-path="url(#9c85df176a)"><path fill="#ffffff" d="M 70.90625 37.339844 C 70.90625 38.421875 70.855469 39.5 70.75 40.574219 C 70.644531 41.652344 70.484375 42.71875 70.273438 43.777344 C 70.0625 44.839844 69.800781 45.886719 69.488281 46.921875 C 69.171875 47.953125 68.808594 48.972656 68.394531 49.96875 C 67.980469 50.96875 67.519531 51.945312 67.011719 52.898438 C 66.5 53.851562 65.945312 54.777344 65.347656 55.675781 C 64.746094 56.574219 64.101562 57.441406 63.417969 58.277344 C 62.730469 59.113281 62.007812 59.910156 61.242188 60.675781 C 60.476562 61.441406 59.679688 62.164062 58.84375 62.851562 C 58.007812 63.535156 57.140625 64.179688 56.242188 64.78125 C 55.34375 65.378906 54.417969 65.933594 53.464844 66.445312 C 52.511719 66.953125 51.535156 67.414062 50.535156 67.828125 C 49.539062 68.242188 48.523438 68.605469 47.488281 68.917969 C 46.453125 69.234375 45.40625 69.496094 44.347656 69.707031 C 43.285156 69.917969 42.21875 70.074219 41.144531 70.183594 C 40.066406 70.289062 38.988281 70.339844 37.910156 70.339844 C 36.828125 70.339844 35.75 70.289062 34.675781 70.183594 C 33.597656 70.074219 32.53125 69.917969 31.46875 69.707031 C 30.410156 69.496094 29.363281 69.234375 28.328125 68.917969 C 27.296875 68.605469 26.277344 68.242188 25.28125 67.828125 C 24.28125 67.414062 23.304688 66.953125 22.351562 66.445312 C 21.398438 65.933594 20.472656 65.378906 19.574219 64.78125 C 18.675781 64.179688 17.808594 63.535156 16.972656 62.851562 C 16.136719 62.164062 15.339844 61.441406 14.574219 60.675781 C 13.808594 59.910156 13.085938 59.113281 12.398438 58.277344 C 11.714844 57.441406 11.070312 56.574219 10.46875 55.675781 C 9.871094 54.777344 9.316406 53.851562 8.804688 52.898438 C 8.296875 51.945312 7.835938 50.96875 7.421875 49.96875 C 7.007812 48.972656 6.644531 47.953125 6.328125 46.921875 C 6.015625 45.886719 5.753906 44.839844 5.542969 43.777344 C 5.332031 42.71875 5.171875 41.652344 5.066406 40.574219 C 4.960938 39.5 4.910156 38.421875 4.910156 37.339844 C 4.910156 36.261719 4.960938 35.183594 5.066406 34.105469 C 5.171875 33.03125 5.332031 31.964844 5.542969 30.902344 C 5.753906 29.84375 6.015625 28.796875 6.328125 27.761719 C 6.644531 26.726562 7.007812 25.710938 7.421875 24.710938 C 7.835938 23.714844 8.296875 22.738281 8.804688 21.785156 C 9.316406 20.832031 9.871094 19.90625 10.46875 19.007812 C 11.070312 18.109375 11.714844 17.242188 12.398438 16.40625 C 13.085938 15.570312 13.808594 14.769531 14.574219 14.007812 C 15.339844 13.242188 16.136719 12.519531 16.972656 11.832031 C 17.808594 11.148438 18.675781 10.503906 19.574219 9.902344 C 20.472656 9.300781 21.398438 8.746094 22.351562 8.238281 C 23.304688 7.730469 24.28125 7.265625 25.28125 6.855469 C 26.277344 6.441406 27.296875 6.078125 28.328125 5.761719 C 29.363281 5.449219 30.410156 5.1875 31.46875 4.976562 C 32.53125 4.765625 33.597656 4.605469 34.675781 4.5 C 35.75 4.394531 36.828125 4.339844 37.910156 4.339844 C 38.988281 4.339844 40.066406 4.394531 41.144531 4.5 C 42.21875 4.605469 43.285156 4.765625 44.347656 4.976562 C 45.40625 5.1875 46.453125 5.449219 47.488281 5.761719 C 48.523438 6.078125 49.539062 6.441406 50.535156 6.855469 C 51.535156 7.265625 52.511719 7.730469 53.464844 8.238281 C 54.417969 8.746094 55.34375 9.300781 56.242188 9.902344 C 57.140625 10.503906 58.007812 11.148438 58.84375 11.832031 C 59.679688 12.519531 60.476562 13.242188 61.242188 14.007812 C 62.007812 14.769531 62.730469 15.570312 63.417969 16.40625 C 64.101562 17.242188 64.746094 18.109375 65.347656 19.007812 C 65.945312 19.90625 66.5 20.832031 67.011719 21.785156 C 67.519531 22.738281 67.980469 23.714844 68.394531 24.710938 C 68.808594 25.710938 69.171875 26.726562 69.488281 27.761719 C 69.800781 28.796875 70.0625 29.84375 70.273438 30.902344 C 70.484375 31.964844 70.644531 33.03125 70.75 34.105469 C 70.855469 35.183594 70.90625 36.261719 70.90625 37.339844 Z M 70.90625 37.339844 " fill-opacity="1" fill-rule="nonzero"/></g><g clip-path="url(#ea98f77649)"><path fill="#69d0b3" d="M 66.167969 37.496094 C 66.167969 38.414062 66.121094 39.332031 66.03125 40.25 C 65.941406 41.164062 65.808594 42.074219 65.628906 42.976562 C 65.449219 43.878906 65.226562 44.769531 64.957031 45.648438 C 64.691406 46.53125 64.382812 47.394531 64.027344 48.246094 C 63.675781 49.09375 63.285156 49.925781 62.851562 50.738281 C 62.417969 51.546875 61.945312 52.335938 61.433594 53.101562 C 60.921875 53.867188 60.375 54.605469 59.792969 55.316406 C 59.207031 56.027344 58.589844 56.707031 57.941406 57.359375 C 57.289062 58.007812 56.609375 58.625 55.898438 59.210938 C 55.1875 59.792969 54.449219 60.339844 53.683594 60.851562 C 52.917969 61.363281 52.128906 61.835938 51.320312 62.269531 C 50.507812 62.703125 49.675781 63.09375 48.828125 63.445312 C 47.976562 63.800781 47.113281 64.109375 46.230469 64.375 C 45.351562 64.644531 44.460938 64.867188 43.558594 65.046875 C 42.65625 65.226562 41.746094 65.359375 40.832031 65.449219 C 39.914062 65.539062 38.996094 65.585938 38.078125 65.585938 C 37.15625 65.585938 36.242188 65.539062 35.324219 65.449219 C 34.410156 65.359375 33.5 65.226562 32.597656 65.046875 C 31.695312 64.867188 30.804688 64.644531 29.925781 64.375 C 29.042969 64.109375 28.179688 63.800781 27.328125 63.445312 C 26.480469 63.09375 25.648438 62.703125 24.835938 62.269531 C 24.027344 61.835938 23.238281 61.363281 22.472656 60.851562 C 21.707031 60.339844 20.96875 59.792969 20.257812 59.210938 C 19.546875 58.625 18.867188 58.007812 18.214844 57.359375 C 17.566406 56.707031 16.949219 56.027344 16.363281 55.316406 C 15.78125 54.605469 15.234375 53.867188 14.722656 53.101562 C 14.210938 52.335938 13.738281 51.546875 13.304688 50.738281 C 12.871094 49.925781 12.480469 49.09375 12.125 48.246094 C 11.773438 47.394531 11.464844 46.53125 11.199219 45.648438 C 10.929688 44.769531 10.707031 43.878906 10.527344 42.976562 C 10.347656 42.074219 10.214844 41.164062 10.125 40.25 C 10.035156 39.332031 9.988281 38.414062 9.988281 37.496094 C 9.988281 36.574219 10.035156 35.65625 10.125 34.742188 C 10.214844 33.828125 10.347656 32.917969 10.527344 32.015625 C 10.707031 31.113281 10.929688 30.222656 11.199219 29.339844 C 11.464844 28.460938 11.773438 27.597656 12.125 26.746094 C 12.480469 25.894531 12.871094 25.066406 13.304688 24.253906 C 13.738281 23.441406 14.210938 22.65625 14.722656 21.890625 C 15.234375 21.125 15.78125 20.386719 16.363281 19.675781 C 16.949219 18.964844 17.566406 18.285156 18.214844 17.632812 C 18.867188 16.984375 19.546875 16.367188 20.257812 15.78125 C 20.96875 15.199219 21.707031 14.652344 22.472656 14.140625 C 23.238281 13.628906 24.027344 13.15625 24.835938 12.722656 C 25.648438 12.289062 26.480469 11.894531 27.328125 11.542969 C 28.179688 11.191406 29.042969 10.882812 29.925781 10.617188 C 30.804688 10.347656 31.695312 10.125 32.597656 9.945312 C 33.5 9.765625 34.410156 9.632812 35.324219 9.542969 C 36.242188 9.453125 37.15625 9.40625 38.078125 9.40625 C 38.996094 9.40625 39.914062 9.453125 40.832031 9.542969 C 41.746094 9.632812 42.65625 9.765625 43.558594 9.945312 C 44.460938 10.125 45.351562 10.347656 46.230469 10.617188 C 47.113281 10.882812 47.976562 11.191406 48.828125 11.542969 C 49.675781 11.894531 50.507812 12.289062 51.320312 12.722656 C 52.128906 13.15625 52.917969 13.628906 53.683594 14.140625 C 54.449219 14.652344 55.1875 15.199219 55.898438 15.78125 C 56.609375 16.367188 57.289062 16.984375 57.941406 17.632812 C 58.589844 18.285156 59.207031 18.964844 59.792969 19.675781 C 60.375 20.386719 60.921875 21.125 61.433594 21.890625 C 61.945312 22.65625 62.417969 23.441406 62.851562 24.253906 C 63.285156 25.066406 63.675781 25.894531 64.027344 26.746094 C 64.382812 27.597656 64.691406 28.460938 64.957031 29.339844 C 65.226562 30.222656 65.449219 31.113281 65.628906 32.015625 C 65.808594 32.917969 65.941406 33.828125 66.03125 34.742188 C 66.121094 35.65625 66.167969 36.574219 66.167969 37.496094 Z M 66.167969 37.496094 " fill-opacity="1" fill-rule="nonzero"/></g><g clip-path="url(#32533dcb2c)"><path fill="#ffffff" d="M 44.410156 34 C 44.410156 38.910156 41.953125 43.238281 38.191406 45.828125 C 34.4375 43.238281 31.972656 38.910156 31.972656 34 C 31.972656 29.085938 34.425781 24.761719 38.191406 22.167969 C 41.953125 24.761719 44.410156 29.085938 44.410156 34 Z M 14.859375 38.515625 C 14.507812 38.617188 14.171875 38.730469 13.84375 38.855469 C 13.945312 39.519531 14.082031 40.195312 14.28125 40.859375 C 16.523438 48.476562 24.511719 52.824219 32.117188 50.582031 C 32.851562 50.367188 33.550781 50.097656 34.214844 49.785156 C 34.144531 49.5 34.078125 49.21875 33.988281 48.9375 C 31.589844 40.78125 23.015625 36.105469 14.859375 38.515625 Z M 62.3125 39.011719 C 62.210938 38.980469 62.109375 38.945312 62.007812 38.910156 C 53.917969 36.253906 45.222656 40.65625 42.5625 48.746094 C 42.460938 49.050781 42.371094 49.367188 42.292969 49.671875 C 42.742188 49.875 43.203125 50.054688 43.675781 50.199219 C 51.214844 52.679688 59.339844 48.566406 61.804688 41.027344 C 62.03125 40.363281 62.199219 39.6875 62.3125 39.011719 Z M 62.3125 39.011719 " fill-opacity="1" fill-rule="nonzero"/></g><g fill="#ffffff" fill-opacity="1"><g transform="translate(102.360783, 28.974179)"><g><path d="M 2.984375 -14.703125 C 2.960938 -13.222656 2.726562 -10.738281 2.28125 -7.25 C 1.914062 -4.269531 1.753906 -2.175781 1.796875 -0.96875 C 1.816406 -0.375 1.796875 0.398438 1.734375 1.359375 C 1.710938 1.765625 1.894531 2.070312 2.28125 2.28125 C 2.8125 2.519531 3.226562 2.648438 3.53125 2.671875 C 3.832031 2.671875 4.21875 2.273438 4.6875 1.484375 C 5.101562 0.722656 5.3125 0.0390625 5.3125 -0.5625 C 5.332031 -2.289062 5.390625 -3.875 5.484375 -5.3125 C 6.816406 -5.070312 7.867188 -4.742188 8.640625 -4.328125 C 9.796875 -3.703125 11.316406 -2.570312 13.203125 -0.9375 C 14.921875 0.5625 16.132812 1.484375 16.84375 1.828125 C 17.519531 2.160156 18.238281 2.316406 19 2.296875 C 19.582031 2.296875 20.035156 2.191406 20.359375 1.984375 C 20.765625 1.765625 20.984375 1.492188 21.015625 1.171875 C 21.035156 0.941406 20.710938 0.570312 20.046875 0.0625 C 17.660156 -1.832031 15.488281 -3.445312 13.53125 -4.78125 C 12.050781 -5.757812 10.890625 -6.453125 10.046875 -6.859375 C 11.023438 -7.273438 12.273438 -8.144531 13.796875 -9.46875 C 15.328125 -10.78125 16.726562 -12.304688 18 -14.046875 C 18.757812 -15.035156 19.148438 -15.804688 19.171875 -16.359375 C 19.171875 -16.921875 18.628906 -17.289062 17.546875 -17.46875 C 16.554688 -17.632812 15.90625 -17.414062 15.59375 -16.8125 C 14.445312 -14.738281 12.945312 -12.820312 11.09375 -11.0625 C 9.769531 -9.8125 7.976562 -8.882812 5.71875 -8.28125 C 5.789062 -9.351562 5.90625 -10.3125 6.0625 -11.15625 C 6.363281 -13.375 6.53125 -14.960938 6.5625 -15.921875 C 6.582031 -16.492188 6.394531 -16.921875 6 -17.203125 C 5.644531 -17.453125 5.144531 -17.578125 4.5 -17.578125 C 3.738281 -17.578125 3.222656 -17.453125 2.953125 -17.203125 C 2.710938 -17.015625 2.6875 -16.6875 2.875 -16.21875 C 2.945312 -15.875 2.984375 -15.367188 2.984375 -14.703125 Z M 2.984375 -14.703125 "/></g></g></g><g fill="#ffffff" fill-opacity="1"><g transform="translate(123.913119, 28.974179)"><g><path d="M 18.796875 -17.859375 C 14.765625 -17.835938 10.867188 -17.648438 7.109375 -17.296875 C 5.972656 -17.210938 5.09375 -16.957031 4.46875 -16.53125 C 3.875 -16.113281 3.644531 -15.421875 3.78125 -14.453125 C 3.851562 -13.878906 3.785156 -12.738281 3.578125 -11.03125 C 3.453125 -9.84375 3.378906 -8.195312 3.359375 -6.09375 C 3.335938 -3.976562 3.191406 -2.222656 2.921875 -0.828125 C 2.679688 0.210938 2.796875 1.039062 3.265625 1.65625 C 3.742188 2.238281 4.644531 2.539062 5.96875 2.5625 C 6.675781 2.5625 7.425781 2.492188 8.21875 2.359375 C 9.925781 2.109375 11.75 1.957031 13.6875 1.90625 C 15.0625 1.882812 16.195312 1.921875 17.09375 2.015625 C 18.132812 2.148438 19.128906 2.035156 20.078125 1.671875 C 21.460938 1.160156 22.175781 0.519531 22.21875 -0.25 C 22.226562 -0.726562 21.863281 -0.96875 21.125 -0.96875 C 20.375 -0.945312 19.46875 -0.984375 18.40625 -1.078125 C 16.84375 -1.210938 15.734375 -1.289062 15.078125 -1.3125 C 14.109375 -1.289062 12.863281 -1.195312 11.34375 -1.03125 C 10.476562 -0.914062 9.75 -0.847656 9.15625 -0.828125 C 8.457031 -0.828125 7.914062 -0.945312 7.53125 -1.1875 C 7.195312 -1.382812 7.035156 -1.84375 7.046875 -2.5625 C 7.066406 -3.488281 7.097656 -4.425781 7.140625 -5.375 C 9.472656 -5.789062 12.515625 -6.113281 16.265625 -6.34375 C 16.796875 -6.34375 17.375 -6.550781 18 -6.96875 C 18.507812 -7.332031 18.75 -7.617188 18.71875 -7.828125 C 18.695312 -7.941406 18.710938 -8.003906 18.765625 -8.015625 C 18.828125 -8.035156 18.847656 -8.101562 18.828125 -8.21875 C 18.753906 -8.519531 18.441406 -8.773438 17.890625 -8.984375 C 17.148438 -9.234375 16.304688 -9.335938 15.359375 -9.296875 C 12.953125 -9.179688 10.28125 -9.144531 7.34375 -9.1875 C 7.414062 -10.71875 7.546875 -12.21875 7.734375 -13.6875 C 7.753906 -14.132812 7.890625 -14.398438 8.140625 -14.484375 C 8.835938 -14.671875 10.351562 -14.765625 12.6875 -14.765625 C 14.414062 -14.742188 16.382812 -14.664062 18.59375 -14.53125 C 19.414062 -14.507812 20.117188 -14.691406 20.703125 -15.078125 C 21.210938 -15.378906 21.476562 -15.691406 21.5 -16.015625 C 21.5 -16.484375 21.300781 -16.890625 20.90625 -17.234375 C 20.332031 -17.648438 19.628906 -17.859375 18.796875 -17.859375 Z M 18.796875 -17.859375 "/></g></g></g><g fill="#ffffff" fill-opacity="1"><g transform="translate(146.261584, 28.974179)"><g><path d="M 14.84375 -5.65625 C 16.800781 -10.382812 18.421875 -13.675781 19.703125 -15.53125 C 19.898438 -15.832031 19.957031 -16.191406 19.875 -16.609375 C 19.800781 -16.972656 19.648438 -17.265625 19.421875 -17.484375 C 19.179688 -17.710938 18.84375 -17.78125 18.40625 -17.6875 C 17.988281 -17.570312 17.578125 -17.289062 17.171875 -16.84375 C 16.128906 -15.800781 14.453125 -12.972656 12.140625 -8.359375 C 10.640625 -9.441406 9.457031 -10.4375 8.59375 -11.34375 C 7.207031 -12.789062 5.820312 -14.582031 4.4375 -16.71875 C 4.15625 -17.195312 3.773438 -17.507812 3.296875 -17.65625 C 2.835938 -17.789062 2.375 -17.765625 1.90625 -17.578125 C 1.445312 -17.390625 1.15625 -17.097656 1.03125 -16.703125 C 0.894531 -16.335938 0.929688 -15.925781 1.140625 -15.46875 C 1.992188 -13.6875 3.300781 -11.867188 5.0625 -10.015625 C 6.5 -8.472656 8.375 -6.957031 10.6875 -5.46875 C 9.78125 -3.738281 9.050781 -2.425781 8.5 -1.53125 C 8.03125 -0.832031 7.804688 -0.0664062 7.828125 0.765625 C 7.835938 1.578125 8.109375 2.164062 8.640625 2.53125 C 8.929688 2.71875 9.414062 2.671875 10.09375 2.390625 C 10.800781 2.109375 11.316406 1.765625 11.640625 1.359375 C 12.035156 0.847656 13.101562 -1.488281 14.84375 -5.65625 Z M 14.84375 -5.65625 "/></g></g></g><g fill="#ffffff" fill-opacity="1"><g transform="translate(166.250097, 28.974179)"><g><path d="M 2.984375 -14.703125 C 2.960938 -13.222656 2.726562 -10.738281 2.28125 -7.25 C 1.914062 -4.269531 1.753906 -2.175781 1.796875 -0.96875 C 1.816406 -0.375 1.796875 0.398438 1.734375 1.359375 C 1.710938 1.765625 1.894531 2.070312 2.28125 2.28125 C 2.8125 2.519531 3.226562 2.648438 3.53125 2.671875 C 3.832031 2.671875 4.21875 2.273438 4.6875 1.484375 C 5.101562 0.722656 5.3125 0.0390625 5.3125 -0.5625 C 5.332031 -2.289062 5.390625 -3.875 5.484375 -5.3125 C 6.816406 -5.070312 7.867188 -4.742188 8.640625 -4.328125 C 9.796875 -3.703125 11.316406 -2.570312 13.203125 -0.9375 C 14.921875 0.5625 16.132812 1.484375 16.84375 1.828125 C 17.519531 2.160156 18.238281 2.316406 19 2.296875 C 19.582031 2.296875 20.035156 2.191406 20.359375 1.984375 C 20.765625 1.765625 20.984375 1.492188 21.015625 1.171875 C 21.035156 0.941406 20.710938 0.570312 20.046875 0.0625 C 17.660156 -1.832031 15.488281 -3.445312 13.53125 -4.78125 C 12.050781 -5.757812 10.890625 -6.453125 10.046875 -6.859375 C 11.023438 -7.273438 12.273438 -8.144531 13.796875 -9.46875 C 15.328125 -10.78125 16.726562 -12.304688 18 -14.046875 C 18.757812 -15.035156 19.148438 -15.804688 19.171875 -16.359375 C 19.171875 -16.921875 18.628906 -17.289062 17.546875 -17.46875 C 16.554688 -17.632812 15.90625 -17.414062 15.59375 -16.8125 C 14.445312 -14.738281 12.945312 -12.820312 11.09375 -11.0625 C 9.769531 -9.8125 7.976562 -8.882812 5.71875 -8.28125 C 5.789062 -9.351562 5.90625 -10.3125 6.0625 -11.15625 C 6.363281 -13.375 6.53125 -14.960938 6.5625 -15.921875 C 6.582031 -16.492188 6.394531 -16.921875 6 -17.203125 C 5.644531 -17.453125 5.144531 -17.578125 4.5 -17.578125 C 3.738281 -17.578125 3.222656 -17.453125 2.953125 -17.203125 C 2.710938 -17.015625 2.6875 -16.6875 2.875 -16.21875 C 2.945312 -15.875 2.984375 -15.367188 2.984375 -14.703125 Z M 2.984375 -14.703125 "/></g></g></g><g fill="#ffffff" fill-opacity="1"><g transform="translate(187.802433, 28.974179)"><g><path d="M 11.71875 -17.953125 C 8.226562 -17.953125 5.582031 -16.9375 3.78125 -14.90625 C 2.019531 -12.914062 1.140625 -10.316406 1.140625 -7.109375 C 1.140625 -3.898438 1.859375 -1.53125 3.296875 0 C 4.910156 1.707031 7.269531 2.5625 10.375 2.5625 C 13.75 2.5625 16.347656 1.546875 18.171875 -0.484375 C 19.929688 -2.429688 20.8125 -5.273438 20.8125 -9.015625 C 20.8125 -11.691406 20.023438 -13.851562 18.453125 -15.5 C 16.898438 -17.113281 14.65625 -17.929688 11.71875 -17.953125 Z M 6.5625 -12.75 C 7.550781 -14 9.097656 -14.625 11.203125 -14.625 C 12.984375 -14.625 14.40625 -14.15625 15.46875 -13.21875 C 16.507812 -12.289062 17.039062 -10.972656 17.0625 -9.265625 C 17.0625 -6.578125 16.515625 -4.484375 15.421875 -2.984375 C 14.429688 -1.617188 12.75 -0.9375 10.375 -0.9375 C 8.425781 -0.9375 7.003906 -1.46875 6.109375 -2.53125 C 5.253906 -3.550781 4.828125 -5.203125 4.828125 -7.484375 C 4.828125 -9.546875 5.40625 -11.300781 6.5625 -12.75 Z M 6.5625 -12.75 "/></g></g></g><g fill="#ffffff" fill-opacity="1"><g transform="translate(75.919339, 62.90775)"><g><path d="M 11.65625 -14 C 12.988281 -14.300781 15.703125 -14.613281 19.796875 -14.9375 C 20.265625 -14.945312 20.644531 -15.097656 20.9375 -15.390625 C 21.164062 -15.617188 21.28125 -15.882812 21.28125 -16.1875 C 21.28125 -16.539062 21.03125 -16.867188 20.53125 -17.171875 C 19.945312 -17.578125 19.226562 -17.789062 18.375 -17.8125 C 16.757812 -17.8125 14.519531 -17.664062 11.65625 -17.375 C 8.875 -17.09375 7.035156 -17 6.140625 -17.09375 C 5.046875 -17.164062 4.097656 -17.210938 3.296875 -17.234375 C 2.828125 -17.234375 2.238281 -17.082031 1.53125 -16.78125 C 0.832031 -16.4375 0.472656 -16.066406 0.453125 -15.671875 C 0.453125 -15.140625 0.707031 -14.769531 1.21875 -14.5625 C 1.925781 -14.3125 2.707031 -14.1875 3.5625 -14.1875 C 3.914062 -14.1875 4.9375 -14.09375 6.625 -13.90625 C 6.925781 -13.882812 7.226562 -13.859375 7.53125 -13.828125 C 7.664062 -12.460938 7.707031 -11.304688 7.65625 -10.359375 C 7.59375 -9.785156 7.550781 -8.3125 7.53125 -5.9375 C 7.519531 -3.550781 7.445312 -1.828125 7.3125 -0.765625 C 7.195312 0.222656 7.335938 1.03125 7.734375 1.65625 C 8.097656 2.238281 8.835938 2.53125 9.953125 2.53125 C 10.429688 2.53125 10.773438 2.425781 10.984375 2.21875 C 11.171875 1.988281 11.28125 1.640625 11.3125 1.171875 C 11.394531 -0.765625 11.367188 -3.128906 11.234375 -5.921875 C 11.097656 -7.929688 11.191406 -10.613281 11.515625 -13.96875 C 11.535156 -13.988281 11.582031 -14 11.65625 -14 Z M 11.65625 -14 "/></g></g></g><g fill="#ffffff" fill-opacity="1"><g transform="translate(97.642274, 62.90775)"><g><path d="M 18.796875 -17.859375 C 14.765625 -17.835938 10.867188 -17.648438 7.109375 -17.296875 C 5.972656 -17.210938 5.09375 -16.957031 4.46875 -16.53125 C 3.875 -16.113281 3.644531 -15.421875 3.78125 -14.453125 C 3.851562 -13.878906 3.785156 -12.738281 3.578125 -11.03125 C 3.453125 -9.84375 3.378906 -8.195312 3.359375 -6.09375 C 3.335938 -3.976562 3.191406 -2.222656 2.921875 -0.828125 C 2.679688 0.210938 2.796875 1.039062 3.265625 1.65625 C 3.742188 2.238281 4.644531 2.539062 5.96875 2.5625 C 6.675781 2.5625 7.425781 2.492188 8.21875 2.359375 C 9.925781 2.109375 11.75 1.957031 13.6875 1.90625 C 15.0625 1.882812 16.195312 1.921875 17.09375 2.015625 C 18.132812 2.148438 19.128906 2.035156 20.078125 1.671875 C 21.460938 1.160156 22.175781 0.519531 22.21875 -0.25 C 22.226562 -0.726562 21.863281 -0.96875 21.125 -0.96875 C 20.375 -0.945312 19.46875 -0.984375 18.40625 -1.078125 C 16.84375 -1.210938 15.734375 -1.289062 15.078125 -1.3125 C 14.109375 -1.289062 12.863281 -1.195312 11.34375 -1.03125 C 10.476562 -0.914062 9.75 -0.847656 9.15625 -0.828125 C 8.457031 -0.828125 7.914062 -0.945312 7.53125 -1.1875 C 7.195312 -1.382812 7.035156 -1.84375 7.046875 -2.5625 C 7.066406 -3.488281 7.097656 -4.425781 7.140625 -5.375 C 9.472656 -5.789062 12.515625 -6.113281 16.265625 -6.34375 C 16.796875 -6.34375 17.375 -6.550781 18 -6.96875 C 18.507812 -7.332031 18.75 -7.617188 18.71875 -7.828125 C 18.695312 -7.941406 18.710938 -8.003906 18.765625 -8.015625 C 18.828125 -8.035156 18.847656 -8.101562 18.828125 -8.21875 C 18.753906 -8.519531 18.441406 -8.773438 17.890625 -8.984375 C 17.148438 -9.234375 16.304688 -9.335938 15.359375 -9.296875 C 12.953125 -9.179688 10.28125 -9.144531 7.34375 -9.1875 C 7.414062 -10.71875 7.546875 -12.21875 7.734375 -13.6875 C 7.753906 -14.132812 7.890625 -14.398438 8.140625 -14.484375 C 8.835938 -14.671875 10.351562 -14.765625 12.6875 -14.765625 C 14.414062 -14.742188 16.382812 -14.664062 18.59375 -14.53125 C 19.414062 -14.507812 20.117188 -14.691406 20.703125 -15.078125 C 21.210938 -15.378906 21.476562 -15.691406 21.5 -16.015625 C 21.5 -16.484375 21.300781 -16.890625 20.90625 -17.234375 C 20.332031 -17.648438 19.628906 -17.859375 18.796875 -17.859375 Z M 18.796875 -17.859375 "/></g></g></g><g fill="#ffffff" fill-opacity="1"><g transform="translate(119.990739, 62.90775)"><g><path d="M 17.234375 -17.828125 C 15.398438 -17.960938 11.582031 -17.554688 5.78125 -16.609375 C 4.507812 -16.378906 3.644531 -15.878906 3.1875 -15.109375 C 2.726562 -14.347656 2.691406 -13.273438 3.078125 -11.890625 C 3.265625 -10.960938 3.3125 -9.101562 3.21875 -6.3125 C 3.195312 -5.21875 3.15625 -3.085938 3.09375 0.078125 C 3.09375 0.328125 3.445312 0.796875 4.15625 1.484375 C 4.851562 2.128906 5.488281 2.453125 6.0625 2.453125 C 6.414062 2.453125 6.671875 2.351562 6.828125 2.15625 C 6.992188 1.9375 7.050781 1.460938 7 0.734375 C 6.925781 -0.335938 6.847656 -1.300781 6.765625 -2.15625 C 7.335938 -2.238281 7.851562 -2.269531 8.3125 -2.25 C 9.238281 -2.175781 10.988281 -1.503906 13.5625 -0.234375 C 16.601562 1.265625 18.519531 2.070312 19.3125 2.1875 C 20 2.207031 20.53125 2.132812 20.90625 1.96875 C 21.1875 1.832031 21.289062 1.535156 21.21875 1.078125 C 21.144531 0.609375 20.925781 0.132812 20.5625 -0.34375 C 20.050781 -1.019531 19.4375 -1.367188 18.71875 -1.390625 C 18.125 -1.460938 16.082031 -2.488281 12.59375 -4.46875 C 14.269531 -5.164062 15.628906 -5.828125 16.671875 -6.453125 C 18.335938 -7.492188 19.613281 -8.660156 20.5 -9.953125 C 21.257812 -11.109375 21.648438 -12.285156 21.671875 -13.484375 C 21.671875 -14.640625 21.320312 -15.597656 20.625 -16.359375 C 19.863281 -17.171875 18.734375 -17.660156 17.234375 -17.828125 Z M 6.796875 -13.65625 C 9.585938 -14.070312 11.96875 -14.289062 13.9375 -14.3125 C 15.019531 -14.3125 15.785156 -14.207031 16.234375 -14 C 16.691406 -13.800781 16.921875 -13.492188 16.921875 -13.078125 C 16.898438 -11.804688 15.914062 -10.460938 13.96875 -9.046875 C 11.84375 -7.503906 9.429688 -6.316406 6.734375 -5.484375 C 6.796875 -7.835938 6.816406 -10.5625 6.796875 -13.65625 Z M 6.796875 -13.65625 "/></g></g></g><g fill="#ffffff" fill-opacity="1"><g transform="translate(141.656808, 62.90775)"><g><path d="M 5.890625 -13.625 C 4.640625 -11.382812 3.171875 -8.207031 1.484375 -4.09375 C 0.660156 -2.050781 0.234375 -0.429688 0.203125 0.765625 C 0.179688 1.503906 0.351562 1.894531 0.71875 1.9375 C 1.414062 1.988281 1.914062 1.796875 2.21875 1.359375 C 3.207031 -0.285156 4.003906 -1.675781 4.609375 -2.8125 C 8.097656 -2.675781 11.242188 -2.609375 14.046875 -2.609375 C 15.015625 -0.503906 15.953125 1.054688 16.859375 2.078125 C 17.378906 2.660156 17.921875 2.9375 18.484375 2.90625 C 18.671875 2.882812 18.945312 2.910156 19.3125 2.984375 C 20.070312 3.117188 20.640625 3.082031 21.015625 2.875 C 21.304688 2.6875 21.410156 2.375 21.328125 1.9375 C 21.253906 1.40625 20.972656 0.898438 20.484375 0.421875 C 20.023438 -0.046875 19.21875 -1.273438 18.0625 -3.265625 C 16.675781 -5.617188 15.09375 -8.597656 13.3125 -12.203125 C 12.269531 -14.359375 11.710938 -15.816406 11.640625 -16.578125 C 11.617188 -17.085938 11.390625 -17.457031 10.953125 -17.6875 C 10.535156 -17.9375 10.164062 -18.070312 9.84375 -18.09375 C 9.332031 -18.070312 8.828125 -17.832031 8.328125 -17.375 C 7.742188 -16.84375 6.929688 -15.59375 5.890625 -13.625 Z M 8.3125 -10.71875 C 8.84375 -11.851562 9.179688 -12.421875 9.328125 -12.421875 C 9.460938 -12.441406 9.703125 -12.179688 10.046875 -11.640625 C 10.742188 -10.472656 11.40625 -9.101562 12.03125 -7.53125 C 12.257812 -6.945312 12.476562 -6.398438 12.6875 -5.890625 C 10.976562 -5.867188 9.566406 -5.914062 8.453125 -6.03125 C 7.859375 -6.101562 7.125 -6.289062 6.25 -6.59375 C 6.84375 -7.925781 7.53125 -9.300781 8.3125 -10.71875 Z M 8.3125 -10.71875 "/></g></g></g><g fill="#ffffff" fill-opacity="1"><g transform="translate(162.668914, 62.90775)"><g><path d="M 2.25 -11.234375 C 1.65625 -8.085938 1.3125 -4.25 1.21875 0.28125 C 1.21875 0.988281 1.410156 1.492188 1.796875 1.796875 C 2.265625 2.148438 2.785156 2.328125 3.359375 2.328125 C 3.753906 2.328125 4.132812 2.160156 4.5 1.828125 C 4.851562 1.460938 5.03125 0.992188 5.03125 0.421875 C 5.03125 -1.078125 5.066406 -2.554688 5.140625 -4.015625 C 7.648438 -4.140625 9.773438 -4.46875 11.515625 -5 C 13.585938 -5.644531 15.609375 -6.753906 17.578125 -8.328125 C 19.472656 -9.828125 20.421875 -11.351562 20.421875 -12.90625 C 20.421875 -14.332031 19.863281 -15.484375 18.75 -16.359375 C 17.53125 -17.285156 15.5 -17.757812 12.65625 -17.78125 C 10.5 -17.757812 8.46875 -17.519531 6.5625 -17.0625 C 4.519531 -16.59375 3.375 -16.234375 3.125 -15.984375 C 2.882812 -15.753906 2.734375 -15.203125 2.671875 -14.328125 C 2.597656 -13.515625 2.457031 -12.484375 2.25 -11.234375 Z M 6.109375 -13.421875 C 8.160156 -14.273438 10.15625 -14.734375 12.09375 -14.796875 C 13.476562 -14.847656 14.53125 -14.6875 15.25 -14.3125 C 15.757812 -14.0625 16.03125 -13.679688 16.0625 -13.171875 C 16.0625 -12.296875 15.535156 -11.414062 14.484375 -10.53125 C 13.210938 -9.476562 11.804688 -8.679688 10.265625 -8.140625 C 9.109375 -7.722656 7.476562 -7.457031 5.375 -7.34375 C 5.507812 -9.40625 5.753906 -11.429688 6.109375 -13.421875 Z M 6.109375 -13.421875 "/></g></g></g><g fill="#ffffff" fill-opacity="1"><g transform="translate(184.079085, 62.90775)"><g><path d="M 5.125 -17.828125 C 4.476562 -17.828125 4.007812 -17.753906 3.71875 -17.609375 C 3.414062 -17.472656 3.257812 -17.195312 3.25 -16.78125 L 2.84375 -0.078125 C 2.820312 0.503906 2.914062 0.992188 3.125 1.390625 C 3.257812 1.691406 3.457031 1.882812 3.71875 1.96875 C 3.96875 2.019531 4.1875 2.128906 4.375 2.296875 C 4.550781 2.429688 4.800781 2.5 5.125 2.5 C 5.539062 2.5 5.867188 2.40625 6.109375 2.21875 C 6.359375 2.03125 6.492188 1.789062 6.515625 1.5 C 6.585938 -4.71875 6.671875 -10.742188 6.765625 -16.578125 C 6.765625 -16.878906 6.644531 -17.144531 6.40625 -17.375 C 6.09375 -17.675781 5.664062 -17.828125 5.125 -17.828125 Z M 5.125 -17.828125 "/></g></g></g><g fill="#ffffff" fill-opacity="1"><g transform="translate(193.462028, 62.90775)"><g><path d="M 5.890625 -13.625 C 4.640625 -11.382812 3.171875 -8.207031 1.484375 -4.09375 C 0.660156 -2.050781 0.234375 -0.429688 0.203125 0.765625 C 0.179688 1.503906 0.351562 1.894531 0.71875 1.9375 C 1.414062 1.988281 1.914062 1.796875 2.21875 1.359375 C 3.207031 -0.285156 4.003906 -1.675781 4.609375 -2.8125 C 8.097656 -2.675781 11.242188 -2.609375 14.046875 -2.609375 C 15.015625 -0.503906 15.953125 1.054688 16.859375 2.078125 C 17.378906 2.660156 17.921875 2.9375 18.484375 2.90625 C 18.671875 2.882812 18.945312 2.910156 19.3125 2.984375 C 20.070312 3.117188 20.640625 3.082031 21.015625 2.875 C 21.304688 2.6875 21.410156 2.375 21.328125 1.9375 C 21.253906 1.40625 20.972656 0.898438 20.484375 0.421875 C 20.023438 -0.046875 19.21875 -1.273438 18.0625 -3.265625 C 16.675781 -5.617188 15.09375 -8.597656 13.3125 -12.203125 C 12.269531 -14.359375 11.710938 -15.816406 11.640625 -16.578125 C 11.617188 -17.085938 11.390625 -17.457031 10.953125 -17.6875 C 10.535156 -17.9375 10.164062 -18.070312 9.84375 -18.09375 C 9.332031 -18.070312 8.828125 -17.832031 8.328125 -17.375 C 7.742188 -16.84375 6.929688 -15.59375 5.890625 -13.625 Z M 8.3125 -10.71875 C 8.84375 -11.851562 9.179688 -12.421875 9.328125 -12.421875 C 9.460938 -12.441406 9.703125 -12.179688 10.046875 -11.640625 C 10.742188 -10.472656 11.40625 -9.101562 12.03125 -7.53125 C 12.257812 -6.945312 12.476562 -6.398438 12.6875 -5.890625 C 10.976562 -5.867188 9.566406 -5.914062 8.453125 -6.03125 C 7.859375 -6.101562 7.125 -6.289062 6.25 -6.59375 C 6.84375 -7.925781 7.53125 -9.300781 8.3125 -10.71875 Z M 8.3125 -10.71875 "/></g></g></g><g fill="#ffffff" fill-opacity="1"><g transform="translate(214.474135, 62.90775)"><g><path d="M 13.375 -18.03125 C 9.59375 -18.03125 6.585938 -17.242188 4.359375 -15.671875 C 2.453125 -14.304688 1.5 -12.722656 1.5 -10.921875 C 1.5 -9.816406 1.9375 -8.890625 2.8125 -8.140625 C 3.613281 -7.429688 4.695312 -7.03125 6.0625 -6.9375 C 7.664062 -6.863281 9.585938 -6.617188 11.828125 -6.203125 C 13.273438 -5.859375 14.265625 -5.476562 14.796875 -5.0625 C 15.210938 -4.695312 15.425781 -4.257812 15.4375 -3.75 C 15.4375 -2.988281 14.890625 -2.289062 13.796875 -1.65625 C 12.753906 -1.03125 11 -0.71875 8.53125 -0.71875 C 7.21875 -0.71875 5.96875 -0.960938 4.78125 -1.453125 C 3.625 -1.910156 2.644531 -1.9375 1.84375 -1.53125 C 1.144531 -1.132812 0.785156 -0.707031 0.765625 -0.25 C 0.785156 0.3125 1.257812 0.820312 2.1875 1.28125 C 4.257812 2.207031 6.660156 2.679688 9.390625 2.703125 C 12.585938 2.703125 15.222656 1.972656 17.296875 0.515625 C 19.191406 -0.816406 20.140625 -2.515625 20.140625 -4.578125 C 20.140625 -5.847656 19.578125 -6.929688 18.453125 -7.828125 C 17.359375 -8.691406 14.71875 -9.378906 10.53125 -9.890625 C 8.082031 -10.179688 6.695312 -10.429688 6.375 -10.640625 C 6.03125 -10.867188 5.859375 -11.179688 5.859375 -11.578125 C 5.859375 -12.367188 6.351562 -13.03125 7.34375 -13.5625 C 8.550781 -14.207031 10.078125 -14.53125 11.921875 -14.53125 C 14.265625 -14.53125 16.484375 -14.148438 18.578125 -13.390625 C 19.160156 -13.171875 19.644531 -13.191406 20.03125 -13.453125 C 20.332031 -13.703125 20.488281 -14.28125 20.5 -15.1875 C 20.519531 -16.113281 19.9375 -16.773438 18.75 -17.171875 C 17.039062 -17.742188 15.25 -18.03125 13.375 -18.03125 Z M 13.375 -18.03125 "/></g></g></g></svg>